<svg width="32" height="32" viewBox="0 0 32 32" fill="none" xmlns="http://www.w3.org/2000/svg">
<path d="M5.33325 8V16C5.33325 16 5.33325 20 14.6666 20C23.9999 20 23.9999 16 23.9999 16V8" stroke="#FF9100" stroke-width="1.5" stroke-linecap="round" stroke-linejoin="round"/>
<path d="M14.6666 28C5.33325 28 5.33325 24 5.33325 24V16M14.6666 4C23.9999 4 23.9999 8 23.9999 8C23.9999 8 23.9999 12 14.6666 12C5.33325 12 5.33325 8 5.33325 8C5.33325 8 5.33325 4 14.6666 4Z" stroke="#FF9100" stroke-width="1.5" stroke-linecap="round" stroke-linejoin="round"/>
<path d="M20 28V25.3333M24 28V22.6667M28 28V20" stroke="#FF9100" stroke-width="1.5" stroke-linecap="round"/>
</svg>
