<svg width="32" height="32" viewBox="0 0 32 32" fill="none" xmlns="http://www.w3.org/2000/svg">
<g clip-path="url(#clip0_87_397)">
<path d="M15.445 23.5107C15.1664 23.8172 15.189 24.2915 15.4955 24.5701C15.802 24.8487 16.2763 24.8262 16.555 24.5197L16.571 24.5021C16.8496 24.1956 16.827 23.7212 16.5205 23.4426C16.214 23.164 15.7397 23.1866 15.461 23.4931L15.445 23.5107Z" stroke="#FF9100" stroke-width="1.5" stroke-linecap="round" stroke-linejoin="round"/>
<path d="M6.75 30.8V1.2C6.75 1.08065 6.79741 0.966193 6.8818 0.881802C6.96619 0.79741 7.08065 0.75 7.2 0.75H24.8C24.8591 0.75 24.9176 0.761639 24.9722 0.784255C25.0268 0.806869 25.0764 0.840017 25.1182 0.881804C25.16 0.923589 25.1931 0.973199 25.2157 1.0278C25.2384 1.08239 25.25 1.1409 25.25 1.2V30.8C25.25 30.8591 25.2384 30.9176 25.2157 30.9722C25.1931 31.0268 25.16 31.0764 25.1182 31.1182C25.0764 31.16 25.0268 31.1931 24.9722 31.2157C24.9176 31.2384 24.8591 31.25 24.8 31.25H7.2C7.08065 31.25 6.96619 31.2026 6.8818 31.1182C6.79741 31.0338 6.75 30.9193 6.75 30.8Z" stroke="#FF9100" stroke-width="1.5"/>
</g>
<defs>
<clipPath id="clip0_87_397">
<rect width="32" height="32" fill="white"/>
</clipPath>
</defs>
</svg>
