<svg width="32" height="32" viewBox="0 0 32 32" fill="none" xmlns="http://www.w3.org/2000/svg">
<g clip-path="url(#clip0_87_408)">
<path d="M1.33325 27.9999V3.99992C1.33325 3.29267 1.6142 2.6144 2.1143 2.1143C2.6144 1.6142 3.29267 1.33325 3.99992 1.33325H27.9999C28.7072 1.33325 29.3854 1.6142 29.8855 2.1143C30.3856 2.6144 30.6666 3.29267 30.6666 3.99992V27.9999C30.6666 28.7072 30.3856 29.3854 29.8855 29.8855C29.3854 30.3856 28.7072 30.6666 27.9999 30.6666H3.99992C3.29267 30.6666 2.6144 30.3856 2.1143 29.8855C1.6142 29.3854 1.33325 28.7072 1.33325 27.9999Z" stroke="#FF9100" stroke-width="1.5"/>
<path d="M19.9998 9.33317H25.3332M19.9998 20.6665H25.3332M19.9998 24.6665H25.3332M6.6665 9.33317H9.33317M11.9998 9.33317H9.33317M9.33317 9.33317V6.6665M9.33317 9.33317V11.9998M7.44784 24.5518L9.33317 22.6665M11.2198 20.7812L9.33317 22.6665M9.33317 22.6665L7.44784 20.7812M9.33317 22.6665L11.2198 24.5518" stroke="#FF9100" stroke-width="1.5" stroke-linecap="round" stroke-linejoin="round"/>
</g>
<defs>
<clipPath id="clip0_87_408">
<rect width="32" height="32" fill="white"/>
</clipPath>
</defs>
</svg>
