<svg width="32" height="32" viewBox="0 0 32 32" fill="none" xmlns="http://www.w3.org/2000/svg">
<mask id="path-1-inside-1_715_235" fill="white">
<path fill-rule="evenodd" clip-rule="evenodd" d="M21 0H11V11H0V21H11V32H21V21H32V11H21V0Z"/>
</mask>
<path d="M11 0V-1.5H9.5V0H11ZM21 0H22.5V-1.5H21V0ZM11 11V12.5H12.5V11H11ZM0 11V9.5H-1.5V11H0ZM0 21H-1.5V22.5H0V21ZM11 21H12.5V19.5H11V21ZM11 32H9.5V33.5H11V32ZM21 32V33.5H22.5V32H21ZM21 21V19.5H19.5V21H21ZM32 21V22.5H33.5V21H32ZM32 11H33.5V9.5H32V11ZM21 11H19.5V12.5H21V11ZM11 1.5H21V-1.5H11V1.5ZM12.5 11V0H9.5V11H12.5ZM0 12.5H11V9.5H0V12.5ZM1.5 21V11H-1.5V21H1.5ZM11 19.5H0V22.5H11V19.5ZM12.5 32V21H9.5V32H12.5ZM21 30.5H11V33.5H21V30.5ZM19.5 21V32H22.5V21H19.5ZM32 19.5H21V22.5H32V19.5ZM30.5 11V21H33.5V11H30.5ZM21 12.5H32V9.5H21V12.5ZM19.5 0V11H22.5V0H19.5Z" fill="#FF9100" mask="url(#path-1-inside-1_715_235)"/>
</svg>
