<svg width="32" height="32" viewBox="0 0 32 32" fill="none" xmlns="http://www.w3.org/2000/svg">
<path d="M22.6654 13.3333H26.6654M30.6654 13.3333H26.6654M26.6654 13.3333V9.33325M26.6654 13.3333V17.3333M1.33203 26.6666V25.3333C1.33203 22.8579 2.31536 20.4839 4.0657 18.7336C5.81604 16.9833 8.19001 15.9999 10.6654 15.9999V15.9999C13.1407 15.9999 15.5147 16.9833 17.265 18.7336C19.0154 20.4839 19.9987 22.8579 19.9987 25.3333V26.6666M10.6654 15.9999C12.0799 15.9999 13.4364 15.438 14.4366 14.4378C15.4368 13.4376 15.9987 12.0811 15.9987 10.6666C15.9987 9.2521 15.4368 7.89554 14.4366 6.89535C13.4364 5.89515 12.0799 5.33325 10.6654 5.33325C9.25088 5.33325 7.89432 5.89515 6.89413 6.89535C5.89393 7.89554 5.33203 9.2521 5.33203 10.6666C5.33203 12.0811 5.89393 13.4376 6.89413 14.4378C7.89432 15.438 9.25088 15.9999 10.6654 15.9999V15.9999Z" stroke="#FF9100" stroke-width="1.5" stroke-linecap="round" stroke-linejoin="round"/>
</svg>
