<svg width="32" height="32" viewBox="0 0 32 32" fill="none" xmlns="http://www.w3.org/2000/svg">
<path d="M8 24L21.3333 24M8 18.6667L12 18.6667M8 13.3333L17.3333 13.3333M8 8L14.6667 8M4.8 28L27.2 28C27.4122 28 27.6157 27.9157 27.7657 27.7657C27.9157 27.6157 28 27.4122 28 27.2L28 4.8C28 4.58783 27.9157 4.38434 27.7657 4.23431C27.6157 4.08428 27.4122 4 27.2 4L4.8 4C4.58783 4 4.38434 4.08428 4.23431 4.23431C4.08428 4.38434 4 4.58783 4 4.8L4 27.2C4 27.4122 4.08429 27.6157 4.23431 27.7657C4.38434 27.9157 4.58783 28 4.8 28V28Z" stroke="#FF9100" stroke-width="1.5" stroke-linecap="round" stroke-linejoin="round"/>
</svg>
