<svg width="219" height="40" viewBox="0 0 219 40" fill="none" xmlns="http://www.w3.org/2000/svg">
<g clip-path="url(#clip0_87_322)">
<path d="M20.9173 0L40.6548 36.2947L28.6463 26.9283L20.9083 12.6321L17.4946 6.31603L20.9173 0ZM24.6136 26.7534C24.6171 27.4985 24.3994 28.2279 23.988 28.8492C23.5767 29.4705 22.9901 29.9557 22.3027 30.2433C21.6153 30.5309 20.858 30.608 20.1268 30.4648C19.3956 30.3216 18.7233 29.9646 18.1951 29.439C17.667 28.9133 17.3067 28.2428 17.1601 27.5122C17.0134 26.7817 17.0869 26.024 17.3712 25.3352C17.6555 24.6465 18.1379 24.0576 18.7572 23.6433C19.3765 23.2289 20.1048 23.0077 20.85 23.0077C21.845 23.0077 22.7996 23.4018 23.5049 24.1037C24.2102 24.8057 24.6088 25.7583 24.6136 26.7534Z" fill="#366CB1"/>
<path d="M18.5892 33.2399L9.8957 40H0L14.552 28.6868L18.5892 33.2399ZM23.075 33.2399L31.7685 40H41.6642L27.1123 28.6868L23.075 33.2399ZM20.9129 0L1.17528 36.2947L13.1883 26.9283L24.3176 6.31603L20.9129 0Z" fill="#89B4E0"/>
<path d="M191.307 20.1682L186.184 10.1649H181.267L189.077 24.5374V35.4604H193.482V24.5464L201.346 10.1649H196.465L191.307 20.1682Z" fill="#366CB1"/>
<path d="M117.865 35.4604H123.248L125.307 30.9162H133.592L135.638 35.4604H141.021L129.425 10.3622L117.865 35.4604ZM126.863 26.7444L129.42 21.0474L132 26.7444H126.863Z" fill="#366CB1"/>
<path d="M105.309 10.1649H100.962V35.4738H115.003V31.2886H105.309V10.1649Z" fill="#366CB1"/>
<path d="M53.8657 35.4738H59.2487L61.3122 30.9162H69.5885L71.643 35.4738H77.026L65.4167 10.3533L53.8657 35.4738ZM62.8688 26.7444L65.4301 21.0474L68.005 26.7444H62.8688Z" fill="#366CB1"/>
<path d="M76.4517 14.3995H83.6245V35.4514H87.9668V14.3995H95.1485V10.1649H76.4517V14.3995Z" fill="#366CB1"/>
<path d="M157.865 23.9453C157.299 23.3537 156.662 22.8353 155.967 22.4021C155.227 21.9311 154.411 21.4691 153.531 21.0205C152.8 20.6437 152.186 20.3028 151.656 20.0112C151.201 19.7543 150.771 19.4538 150.373 19.114C150.061 18.8495 149.807 18.5225 149.629 18.1541C149.469 17.7832 149.39 17.3826 149.396 16.9788C149.381 16.6123 149.443 16.2467 149.577 15.9054C149.712 15.5641 149.916 15.2544 150.176 14.9961C150.787 14.464 151.584 14.1947 152.392 14.2469C152.823 14.2463 153.254 14.2793 153.68 14.3456C154.12 14.4115 154.556 14.5059 154.985 14.6282C155.433 14.7538 155.882 14.9108 156.331 15.0768C156.779 15.2428 157.169 15.4177 157.627 15.6196V11.1248C157.067 10.9211 156.496 10.7459 155.918 10.6C155.339 10.4525 154.752 10.3401 154.159 10.2635C153.557 10.1823 152.95 10.1418 152.343 10.1424C151.219 10.1329 150.1 10.2916 149.023 10.6134C148.098 10.8865 147.237 11.3443 146.493 11.9592C145.8 12.554 145.252 13.2998 144.892 14.1393C144.502 15.0675 144.31 16.0665 144.327 17.073C144.3 18.0595 144.501 19.0388 144.914 19.935C145.282 20.6946 145.778 21.3851 146.381 21.976C146.948 22.5227 147.579 22.9986 148.261 23.3935C148.929 23.7748 149.539 24.1068 150.082 24.3804C150.723 24.7034 151.315 25.0219 151.849 25.3179C152.333 25.5845 152.791 25.8954 153.217 26.2465C153.574 26.5396 153.877 26.8916 154.115 27.2872C154.338 27.6871 154.451 28.1391 154.442 28.5971C154.447 28.9766 154.381 29.3538 154.249 29.7095C154.116 30.0543 153.903 30.362 153.626 30.6067C153.305 30.8743 152.93 31.0701 152.527 31.1809C152.008 31.3251 151.472 31.3931 150.934 31.3827C150.332 31.3806 149.732 31.3235 149.14 31.2123C148.533 31.0986 147.934 30.9488 147.346 30.7637C146.744 30.5708 146.148 30.3465 145.551 30.1043C144.955 29.8621 144.524 29.6557 144.031 29.4359V34.0339C145.028 34.5219 146.083 34.8836 147.171 35.1105C148.35 35.3603 149.553 35.4851 150.759 35.4828C152.032 35.5016 153.3 35.3307 154.523 34.9759C155.524 34.6839 156.459 34.1976 157.273 33.5449C158.007 32.9408 158.59 32.1725 158.973 31.302C159.371 30.3697 159.57 29.3642 159.556 28.3503C159.569 27.4949 159.417 26.6449 159.107 25.8473C158.813 25.1427 158.392 24.4981 157.865 23.9453Z" fill="#366CB1"/>
<path d="M177.432 23.9453C176.866 23.3537 176.229 22.8353 175.534 22.4022C174.794 21.9311 173.973 21.4691 173.099 21.0205C172.367 20.6437 171.753 20.3028 171.224 20.0112C170.769 19.7555 170.34 19.4549 169.945 19.1141C169.634 18.8537 169.383 18.5293 169.209 18.1631C169.046 17.7933 168.964 17.3922 168.972 16.9878C168.957 16.6212 169.019 16.2557 169.154 15.9144C169.288 15.5731 169.492 15.2634 169.752 15.005C170.363 14.4729 171.16 14.2037 171.968 14.2559C172.399 14.2553 172.83 14.2883 173.256 14.3546C173.696 14.4205 174.132 14.5149 174.561 14.6372C175.01 14.7628 175.458 14.9198 175.907 15.0858C176.355 15.2518 176.746 15.4267 177.203 15.6286V11.1248C176.641 10.921 176.069 10.7458 175.49 10.6C174.911 10.4525 174.324 10.3401 173.731 10.2635C173.129 10.1823 172.522 10.1418 171.914 10.1424C170.78 10.1301 169.65 10.2889 168.564 10.6134C167.638 10.8865 166.777 11.3443 166.034 11.9592C165.34 12.554 164.792 13.2998 164.432 14.1393C164.042 15.0673 163.85 16.0665 163.867 17.073C163.84 18.0595 164.041 19.0388 164.455 19.935C164.822 20.6946 165.319 21.3851 165.921 21.976C166.488 22.5227 167.119 22.9986 167.801 23.3935C168.469 23.7748 169.079 24.1068 169.622 24.3804C170.264 24.7034 170.856 25.0219 171.39 25.3179C171.873 25.5845 172.331 25.8954 172.758 26.2465C173.114 26.5396 173.418 26.8916 173.655 27.2872C173.878 27.6871 173.991 28.1391 173.982 28.5971C173.987 28.9766 173.922 29.3538 173.789 29.7095C173.659 30.0554 173.445 30.3636 173.166 30.6067C172.845 30.8743 172.47 31.0701 172.067 31.1809C171.549 31.3251 171.012 31.3931 170.474 31.3827C169.872 31.3806 169.272 31.3235 168.68 31.2123C168.074 31.098 167.475 30.9483 166.886 30.7637C166.285 30.5708 165.688 30.3465 165.091 30.1043C164.495 29.8621 164.064 29.6557 163.571 29.4359V34.0339C164.569 34.5219 165.623 34.8836 166.711 35.1105C167.891 35.3603 169.094 35.4851 170.3 35.4828C171.571 35.5019 172.838 35.331 174.059 34.9759C175.062 34.6839 175.997 34.1977 176.813 33.5449C177.545 32.9394 178.126 32.1714 178.509 31.302C178.907 30.3697 179.106 29.3642 179.092 28.3503C179.105 27.4949 178.952 26.645 178.643 25.8473C178.358 25.1451 177.948 24.5006 177.432 23.9453Z" fill="#366CB1"/>
<path d="M218.315 25.8562C218.029 25.1502 217.615 24.5026 217.095 23.9453C216.53 23.3537 215.892 22.8353 215.198 22.4022C214.462 21.9536 213.641 21.4691 212.762 21.0205C212.031 20.6437 211.416 20.3028 210.887 20.0112C210.431 19.7543 210.002 19.4538 209.604 19.1141C209.292 18.8495 209.038 18.5225 208.859 18.1541C208.699 17.7833 208.62 17.3827 208.626 16.9788C208.612 16.6123 208.674 16.2467 208.808 15.9054C208.942 15.5641 209.146 15.2544 209.407 14.9961C210.018 14.464 210.814 14.1947 211.623 14.2469C212.054 14.2463 212.484 14.2793 212.91 14.3456C213.351 14.4115 213.787 14.5059 214.215 14.6282C214.664 14.7538 215.113 14.9108 215.561 15.0768C216.01 15.2428 216.4 15.4177 216.858 15.6196V11.1248C216.297 10.9211 215.727 10.746 215.149 10.6C214.57 10.4525 213.982 10.3401 213.39 10.2635C212.795 10.1833 212.196 10.1428 211.596 10.1424C210.458 10.1292 209.326 10.288 208.236 10.6134C207.31 10.8865 206.45 11.3443 205.706 11.9592C205.011 12.553 204.463 13.2991 204.104 14.1393C203.715 15.0675 203.522 16.0665 203.539 17.073C203.513 18.0595 203.714 19.0388 204.127 19.935C204.495 20.6946 204.991 21.3851 205.594 21.976C206.161 22.5227 206.792 22.9986 207.473 23.3935C208.142 23.7793 208.756 24.1113 209.295 24.3804C209.936 24.7034 210.533 25.0219 211.062 25.3179C211.546 25.5845 212.004 25.8954 212.43 26.2465C212.786 26.5396 213.09 26.8916 213.327 27.2872C213.551 27.6871 213.664 28.1391 213.655 28.5971C213.66 28.9766 213.594 29.3538 213.462 29.7096C213.329 30.0543 213.115 30.3621 212.838 30.6067C212.517 30.8743 212.142 31.0701 211.739 31.1809C211.221 31.3251 210.685 31.3931 210.147 31.3828C209.545 31.3806 208.944 31.3236 208.353 31.2123C207.746 31.098 207.147 30.9483 206.558 30.7637C205.957 30.5708 205.36 30.3465 204.764 30.1043C204.167 29.8621 203.737 29.6557 203.243 29.4359V34.0339C204.241 34.5219 205.296 34.8836 206.383 35.1105C207.563 35.3603 208.766 35.4851 209.972 35.4828C211.243 35.5019 212.51 35.331 213.731 34.9759C214.733 34.6839 215.667 34.1977 216.481 33.5449C217.215 32.9408 217.798 32.1725 218.181 31.302C218.579 30.3697 218.778 29.3642 218.764 28.3503C218.776 27.4979 218.624 26.6511 218.315 25.8562Z" fill="#366CB1"/>
</g>
<defs>
<clipPath id="clip0_87_322">
<rect width="218.751" height="40" fill="white"/>
</clipPath>
</defs>
</svg>
