<svg width="383" height="70" viewBox="0 0 383 70" fill="none" xmlns="http://www.w3.org/2000/svg">
<g clip-path="url(#clip0_87_501)">
<path d="M36.6053 0L71.1461 63.5158L50.1312 47.1246L36.5896 22.1061L30.6157 11.053L36.6053 0ZM43.0739 46.8184C43.0801 48.1224 42.6991 49.3989 41.9792 50.4861C41.2593 51.5733 40.2328 52.4224 39.0299 52.9257C37.827 53.429 36.5017 53.564 35.222 53.3134C33.9423 53.0628 32.7658 52.438 31.8416 51.5182C30.9173 50.5983 30.2869 49.4248 30.0302 48.1464C29.7736 46.8679 29.9021 45.542 30.3997 44.3367C30.8973 43.1314 31.7414 42.1009 32.8252 41.3757C33.909 40.6506 35.1836 40.2636 36.4876 40.2635C38.229 40.2635 39.8995 40.9531 41.1337 42.1815C42.368 43.4099 43.0656 45.0771 43.0739 46.8184Z" fill="white"/>
<path d="M32.5311 58.1698L17.3175 70H0L25.466 50.2019L32.5311 58.1698ZM40.3813 58.1698L55.5949 70H72.9124L47.4465 50.2019L40.3813 58.1698ZM36.5975 0L2.05674 63.5158L23.0795 47.1246L42.5558 11.053L36.5975 0Z" fill="white"/>
<path d="M334.786 35.2945L325.822 17.7886H317.218L330.885 42.9405V62.0557H338.594V42.9562L352.355 17.7886H343.814L334.786 35.2945Z" fill="white"/>
<path d="M206.263 62.0555H215.684L219.287 54.1033H233.786L237.366 62.0555H246.786L226.493 18.1338L206.263 62.0555ZM222.011 46.8026L226.485 36.8329L230.999 46.8026H222.011Z" fill="white"/>
<path d="M184.291 17.7886H176.684V62.0793H201.255V54.755H184.291V17.7886Z" fill="white"/>
<path d="M94.2649 62.0791H103.685L107.296 54.1034H121.78L125.375 62.0791H134.795L114.479 18.1182L94.2649 62.0791ZM110.02 46.8027L114.503 36.833L119.009 46.8027H110.02Z" fill="white"/>
<path d="M133.791 25.1991H146.343V62.04H153.942V25.1991H166.51V17.7886H133.791V25.1991Z" fill="white"/>
<path d="M276.263 41.9042C275.274 40.869 274.158 39.9618 272.943 39.2038C271.648 38.3795 270.219 37.5709 268.68 36.7859C267.401 36.1265 266.325 35.5299 265.399 35.0196C264.601 34.57 263.85 34.0442 263.154 33.4496C262.607 32.9867 262.163 32.4144 261.85 31.7697C261.571 31.1206 261.432 30.4196 261.442 29.7129C261.417 29.0715 261.525 28.4318 261.761 27.8345C261.996 27.2372 262.353 26.6953 262.808 26.2431C263.877 25.312 265.271 24.8408 266.686 24.9322C267.441 24.9311 268.194 24.9888 268.939 25.1049C269.711 25.2202 270.474 25.3854 271.224 25.5994C272.009 25.8192 272.794 26.094 273.579 26.3844C274.364 26.6749 275.047 26.981 275.847 27.3343V19.4684C274.867 19.112 273.868 18.8054 272.856 18.55C271.843 18.2918 270.816 18.0952 269.779 17.9612C268.725 17.819 267.663 17.7482 266.6 17.7492C264.633 17.7325 262.675 18.0104 260.791 18.5735C259.171 19.0513 257.665 19.8525 256.363 20.9286C255.15 21.9695 254.191 23.2746 253.561 24.7438C252.879 26.3681 252.542 28.1164 252.572 29.8778C252.525 31.6041 252.877 33.3179 253.6 34.8862C254.244 36.2156 255.112 37.424 256.167 38.458C257.159 39.4147 258.264 40.2476 259.456 40.9387C260.626 41.6059 261.693 42.1868 262.643 42.6657C263.766 43.2309 264.802 43.7883 265.736 44.3064C266.583 44.7729 267.384 45.3169 268.131 45.9314C268.754 46.4443 269.285 47.0603 269.701 47.7526C270.091 48.4524 270.289 49.2435 270.274 50.0449C270.282 50.7091 270.168 51.3691 269.936 51.9917C269.704 52.5951 269.329 53.1336 268.845 53.5617C268.283 54.0301 267.627 54.3727 266.922 54.5666C266.015 54.8189 265.076 54.9379 264.135 54.9198C263.081 54.9161 262.03 54.8162 260.995 54.6215C259.933 54.4225 258.885 54.1604 257.855 53.8365C256.803 53.4989 255.759 53.1064 254.715 52.6825C253.671 52.2586 252.917 51.8975 252.053 51.5128V59.5593C253.8 60.4134 255.646 61.0463 257.549 61.4433C259.613 61.8806 261.718 62.099 263.829 62.0949C266.056 62.1278 268.276 61.8288 270.415 61.2078C272.168 60.6968 273.803 59.8459 275.227 58.7036C276.513 57.6464 277.532 56.3019 278.202 54.7785C278.9 53.147 279.248 51.3873 279.223 49.6131C279.246 48.116 278.979 46.6287 278.438 45.2327C277.922 43.9997 277.185 42.8716 276.263 41.9042Z" fill="white"/>
<path d="M310.506 41.9042C309.516 40.869 308.4 39.9618 307.185 39.2037C305.89 38.3795 304.453 37.5709 302.923 36.7859C301.643 36.1265 300.567 35.5299 299.641 35.0196C298.845 34.5721 298.096 34.0461 297.404 33.4496C296.86 32.9939 296.421 32.4263 296.116 31.7853C295.83 31.1382 295.688 30.4363 295.7 29.7286C295.675 29.0871 295.784 28.4475 296.019 27.8502C296.254 27.2528 296.611 26.7109 297.066 26.2588C298.136 25.3276 299.529 24.8565 300.944 24.9478C301.699 24.9468 302.452 25.0045 303.197 25.1205C303.969 25.2359 304.732 25.4011 305.482 25.6151C306.267 25.8349 307.052 26.1096 307.837 26.4001C308.622 26.6906 309.305 26.9967 310.105 27.35V19.4684C309.122 19.1117 308.121 18.8051 307.107 18.5499C306.094 18.2918 305.066 18.0952 304.029 17.9612C302.976 17.8189 301.913 17.7481 300.85 17.7492C298.865 17.7276 296.888 18.0055 294.986 18.5735C293.366 19.0513 291.86 19.8524 290.559 20.9285C289.345 21.9695 288.386 23.2746 287.756 24.7437C287.073 26.3678 286.737 28.1163 286.767 29.8777C286.72 31.604 287.072 33.3178 287.795 34.8861C288.439 36.2156 289.307 37.4239 290.362 38.458C291.355 39.4146 292.459 40.2476 293.651 40.9386C294.821 41.6059 295.889 42.1868 296.839 42.6657C297.961 43.2309 298.997 43.7882 299.932 44.3064C300.778 44.7729 301.58 45.3169 302.326 45.9313C302.95 46.4443 303.481 47.0602 303.896 47.7526C304.287 48.4524 304.485 49.2435 304.469 50.0448C304.477 50.709 304.363 51.3691 304.131 51.9917C303.903 52.597 303.528 53.1363 303.04 53.5617C302.478 54.0301 301.822 54.3727 301.117 54.5665C300.21 54.8188 299.271 54.9378 298.33 54.9198C297.277 54.916 296.226 54.8162 295.19 54.6215C294.129 54.4215 293.08 54.1594 292.05 53.8365C290.998 53.4989 289.954 53.1064 288.91 52.6825C287.866 52.2586 287.112 51.8975 286.249 51.5128V59.5592C287.995 60.4134 289.841 61.0463 291.744 61.4433C293.809 61.8805 295.914 62.0988 298.024 62.0948C300.249 62.1283 302.466 61.8293 304.602 61.2078C306.358 60.6967 307.995 59.8459 309.423 58.7036C310.704 57.6439 311.72 56.2999 312.39 54.7785C313.087 53.1469 313.435 51.3873 313.41 49.6131C313.433 48.116 313.167 46.6286 312.625 45.2327C312.126 44.0039 311.408 42.8761 310.506 41.9042Z" fill="white"/>
<path d="M382.052 45.2486C381.55 44.013 380.827 42.8797 379.917 41.9044C378.927 40.8692 377.812 39.962 376.597 39.2039C375.309 38.4189 373.873 37.5711 372.334 36.7861C371.054 36.1266 369.979 35.53 369.052 35.0198C368.255 34.5702 367.503 34.0444 366.807 33.4497C366.26 32.9868 365.817 32.4146 365.504 31.7698C365.224 31.1209 365.085 30.4198 365.096 29.7131C365.071 29.0716 365.179 28.4319 365.414 27.8346C365.649 27.2373 366.006 26.6954 366.462 26.2433C367.531 25.3121 368.925 24.8409 370.34 24.9323C371.094 24.9312 371.848 24.989 372.593 25.105C373.364 25.2203 374.127 25.3855 374.877 25.5996C375.662 25.8194 376.447 26.0941 377.232 26.3846C378.017 26.675 378.7 26.9812 379.501 27.3344V19.4686C378.52 19.1121 377.522 18.8056 376.51 18.5501C375.497 18.2919 374.47 18.0953 373.433 17.9613C372.392 17.8209 371.343 17.7501 370.293 17.7494C368.303 17.7262 366.32 18.0041 364.413 18.5737C362.793 19.0515 361.287 19.8526 359.986 20.9287C358.77 21.9679 357.811 23.2735 357.183 24.7439C356.501 26.3683 356.164 28.1165 356.194 29.8779C356.147 31.6042 356.499 33.318 357.222 34.8863C357.866 36.2158 358.734 37.4241 359.789 38.4581C360.781 39.4148 361.886 40.2478 363.078 40.9388C364.248 41.6139 365.324 42.1948 366.266 42.6658C367.388 43.2311 368.432 43.7884 369.359 44.3065C370.205 44.7731 371.007 45.3171 371.753 45.9315C372.376 46.4444 372.908 47.0604 373.323 47.7528C373.714 48.4525 373.912 49.2436 373.896 50.045C373.904 50.7092 373.79 51.3692 373.559 51.9919C373.326 52.5952 372.952 53.1337 372.467 53.5619C371.905 54.0302 371.249 54.3728 370.544 54.5667C369.637 54.819 368.698 54.938 367.757 54.92C366.704 54.9162 365.653 54.8164 364.617 54.6217C363.556 54.4217 362.507 54.1596 361.477 53.8366C360.425 53.4991 359.381 53.1066 358.337 52.6827C357.293 52.2588 356.539 51.8976 355.676 51.513V59.5594C357.422 60.4135 359.268 61.0464 361.171 61.4435C363.236 61.8806 365.341 62.099 367.451 62.095C369.676 62.1284 371.893 61.8294 374.029 61.2079C375.782 60.6969 377.417 59.846 378.842 58.7038C380.127 57.6466 381.146 56.3021 381.817 54.7787C382.514 53.1471 382.862 51.3875 382.837 49.6132C382.858 48.1215 382.592 46.6396 382.052 45.2486Z" fill="white"/>
</g>
<defs>
<clipPath id="clip0_87_501">
<rect width="382.814" height="70" fill="white"/>
</clipPath>
</defs>
</svg>
