<svg width="641" height="231" viewBox="0 0 641 231" fill="none" xmlns="http://www.w3.org/2000/svg">
<path d="M470.598 223.219V225H459.43V223.441L465.02 217.219C465.707 216.453 466.238 215.805 466.613 215.273C466.996 214.734 467.262 214.254 467.41 213.832C467.566 213.402 467.645 212.965 467.645 212.52C467.645 211.957 467.527 211.449 467.293 210.996C467.066 210.535 466.73 210.168 466.285 209.895C465.84 209.621 465.301 209.484 464.668 209.484C463.91 209.484 463.277 209.633 462.77 209.93C462.27 210.219 461.895 210.625 461.645 211.148C461.395 211.672 461.27 212.273 461.27 212.953H459.102C459.102 211.992 459.312 211.113 459.734 210.316C460.156 209.52 460.781 208.887 461.609 208.418C462.438 207.941 463.457 207.703 464.668 207.703C465.746 207.703 466.668 207.895 467.434 208.277C468.199 208.652 468.785 209.184 469.191 209.871C469.605 210.551 469.812 211.348 469.812 212.262C469.812 212.762 469.727 213.27 469.555 213.785C469.391 214.293 469.16 214.801 468.863 215.309C468.574 215.816 468.234 216.316 467.844 216.809C467.461 217.301 467.051 217.785 466.613 218.262L462.043 223.219H470.598ZM483.149 215.109V217.711C483.149 219.109 483.024 220.289 482.774 221.25C482.524 222.211 482.165 222.984 481.696 223.57C481.227 224.156 480.661 224.582 479.997 224.848C479.34 225.105 478.598 225.234 477.77 225.234C477.114 225.234 476.508 225.152 475.954 224.988C475.399 224.824 474.899 224.562 474.454 224.203C474.016 223.836 473.641 223.359 473.329 222.773C473.016 222.188 472.778 221.477 472.614 220.641C472.45 219.805 472.368 218.828 472.368 217.711V215.109C472.368 213.711 472.493 212.539 472.743 211.594C473 210.648 473.364 209.891 473.833 209.32C474.301 208.742 474.864 208.328 475.52 208.078C476.184 207.828 476.926 207.703 477.747 207.703C478.411 207.703 479.02 207.785 479.575 207.949C480.137 208.105 480.637 208.359 481.075 208.711C481.512 209.055 481.883 209.516 482.188 210.094C482.5 210.664 482.739 211.363 482.903 212.191C483.067 213.02 483.149 213.992 483.149 215.109ZM480.969 218.062V214.746C480.969 213.98 480.922 213.309 480.829 212.73C480.743 212.145 480.614 211.645 480.442 211.23C480.27 210.816 480.051 210.48 479.786 210.223C479.528 209.965 479.227 209.777 478.883 209.66C478.547 209.535 478.168 209.473 477.747 209.473C477.231 209.473 476.774 209.57 476.375 209.766C475.977 209.953 475.641 210.254 475.368 210.668C475.102 211.082 474.899 211.625 474.758 212.297C474.618 212.969 474.547 213.785 474.547 214.746V218.062C474.547 218.828 474.59 219.504 474.676 220.09C474.77 220.676 474.907 221.184 475.086 221.613C475.266 222.035 475.485 222.383 475.743 222.656C476 222.93 476.297 223.133 476.633 223.266C476.977 223.391 477.356 223.453 477.77 223.453C478.301 223.453 478.766 223.352 479.165 223.148C479.563 222.945 479.895 222.629 480.161 222.199C480.434 221.762 480.637 221.203 480.77 220.523C480.903 219.836 480.969 219.016 480.969 218.062ZM496.638 223.219V225H485.47V223.441L491.06 217.219C491.747 216.453 492.278 215.805 492.653 215.273C493.036 214.734 493.302 214.254 493.45 213.832C493.606 213.402 493.685 212.965 493.685 212.52C493.685 211.957 493.567 211.449 493.333 210.996C493.106 210.535 492.77 210.168 492.325 209.895C491.88 209.621 491.341 209.484 490.708 209.484C489.95 209.484 489.317 209.633 488.81 209.93C488.31 210.219 487.935 210.625 487.685 211.148C487.435 211.672 487.31 212.273 487.31 212.953H485.142C485.142 211.992 485.353 211.113 485.774 210.316C486.196 209.52 486.821 208.887 487.649 208.418C488.478 207.941 489.497 207.703 490.708 207.703C491.786 207.703 492.708 207.895 493.474 208.277C494.239 208.652 494.825 209.184 495.231 209.871C495.645 210.551 495.853 211.348 495.853 212.262C495.853 212.762 495.767 213.27 495.595 213.785C495.431 214.293 495.2 214.801 494.903 215.309C494.614 215.816 494.274 216.316 493.884 216.809C493.501 217.301 493.091 217.785 492.653 218.262L488.083 223.219H496.638ZM509.658 223.219V225H498.49V223.441L504.08 217.219C504.767 216.453 505.298 215.805 505.673 215.273C506.056 214.734 506.322 214.254 506.47 213.832C506.626 213.402 506.705 212.965 506.705 212.52C506.705 211.957 506.587 211.449 506.353 210.996C506.126 210.535 505.79 210.168 505.345 209.895C504.9 209.621 504.361 209.484 503.728 209.484C502.97 209.484 502.337 209.633 501.83 209.93C501.33 210.219 500.955 210.625 500.705 211.148C500.455 211.672 500.33 212.273 500.33 212.953H498.162C498.162 211.992 498.373 211.113 498.794 210.316C499.216 209.52 499.841 208.887 500.669 208.418C501.498 207.941 502.517 207.703 503.728 207.703C504.806 207.703 505.728 207.895 506.494 208.277C507.259 208.652 507.845 209.184 508.251 209.871C508.665 210.551 508.873 211.348 508.873 212.262C508.873 212.762 508.787 213.27 508.615 213.785C508.451 214.293 508.22 214.801 507.923 215.309C507.634 215.816 507.294 216.316 506.904 216.809C506.521 217.301 506.111 217.785 505.673 218.262L501.103 223.219H509.658Z" fill="#366CB1"/>
<path d="M580.598 223.219V225H569.43V223.441L575.02 217.219C575.707 216.453 576.238 215.805 576.613 215.273C576.996 214.734 577.262 214.254 577.41 213.832C577.566 213.402 577.645 212.965 577.645 212.52C577.645 211.957 577.527 211.449 577.293 210.996C577.066 210.535 576.73 210.168 576.285 209.895C575.84 209.621 575.301 209.484 574.668 209.484C573.91 209.484 573.277 209.633 572.77 209.93C572.27 210.219 571.895 210.625 571.645 211.148C571.395 211.672 571.27 212.273 571.27 212.953H569.102C569.102 211.992 569.312 211.113 569.734 210.316C570.156 209.52 570.781 208.887 571.609 208.418C572.438 207.941 573.457 207.703 574.668 207.703C575.746 207.703 576.668 207.895 577.434 208.277C578.199 208.652 578.785 209.184 579.191 209.871C579.605 210.551 579.812 211.348 579.812 212.262C579.812 212.762 579.727 213.27 579.555 213.785C579.391 214.293 579.16 214.801 578.863 215.309C578.574 215.816 578.234 216.316 577.844 216.809C577.461 217.301 577.051 217.785 576.613 218.262L572.043 223.219H580.598ZM593.149 215.109V217.711C593.149 219.109 593.024 220.289 592.774 221.25C592.524 222.211 592.165 222.984 591.696 223.57C591.227 224.156 590.661 224.582 589.997 224.848C589.34 225.105 588.598 225.234 587.77 225.234C587.114 225.234 586.508 225.152 585.954 224.988C585.399 224.824 584.899 224.562 584.454 224.203C584.016 223.836 583.641 223.359 583.329 222.773C583.016 222.188 582.778 221.477 582.614 220.641C582.45 219.805 582.368 218.828 582.368 217.711V215.109C582.368 213.711 582.493 212.539 582.743 211.594C583 210.648 583.364 209.891 583.833 209.32C584.301 208.742 584.864 208.328 585.52 208.078C586.184 207.828 586.926 207.703 587.747 207.703C588.411 207.703 589.02 207.785 589.575 207.949C590.137 208.105 590.637 208.359 591.075 208.711C591.512 209.055 591.883 209.516 592.188 210.094C592.5 210.664 592.739 211.363 592.903 212.191C593.067 213.02 593.149 213.992 593.149 215.109ZM590.969 218.062V214.746C590.969 213.98 590.922 213.309 590.829 212.73C590.743 212.145 590.614 211.645 590.442 211.23C590.27 210.816 590.051 210.48 589.786 210.223C589.528 209.965 589.227 209.777 588.883 209.66C588.547 209.535 588.168 209.473 587.747 209.473C587.231 209.473 586.774 209.57 586.375 209.766C585.977 209.953 585.641 210.254 585.368 210.668C585.102 211.082 584.899 211.625 584.758 212.297C584.618 212.969 584.547 213.785 584.547 214.746V218.062C584.547 218.828 584.59 219.504 584.676 220.09C584.77 220.676 584.907 221.184 585.086 221.613C585.266 222.035 585.485 222.383 585.743 222.656C586 222.93 586.297 223.133 586.633 223.266C586.977 223.391 587.356 223.453 587.77 223.453C588.301 223.453 588.766 223.352 589.165 223.148C589.563 222.945 589.895 222.629 590.161 222.199C590.434 221.762 590.637 221.203 590.77 220.523C590.903 219.836 590.969 219.016 590.969 218.062ZM606.638 223.219V225H595.47V223.441L601.06 217.219C601.747 216.453 602.278 215.805 602.653 215.273C603.036 214.734 603.302 214.254 603.45 213.832C603.606 213.402 603.685 212.965 603.685 212.52C603.685 211.957 603.567 211.449 603.333 210.996C603.106 210.535 602.77 210.168 602.325 209.895C601.88 209.621 601.341 209.484 600.708 209.484C599.95 209.484 599.317 209.633 598.81 209.93C598.31 210.219 597.935 210.625 597.685 211.148C597.435 211.672 597.31 212.273 597.31 212.953H595.142C595.142 211.992 595.353 211.113 595.774 210.316C596.196 209.52 596.821 208.887 597.649 208.418C598.478 207.941 599.497 207.703 600.708 207.703C601.786 207.703 602.708 207.895 603.474 208.277C604.239 208.652 604.825 209.184 605.231 209.871C605.645 210.551 605.853 211.348 605.853 212.262C605.853 212.762 605.767 213.27 605.595 213.785C605.431 214.293 605.2 214.801 604.903 215.309C604.614 215.816 604.274 216.316 603.884 216.809C603.501 217.301 603.091 217.785 602.653 218.262L598.083 223.219H606.638ZM611.642 215.402H613.189C613.947 215.402 614.572 215.277 615.064 215.027C615.564 214.77 615.935 214.422 616.177 213.984C616.427 213.539 616.552 213.039 616.552 212.484C616.552 211.828 616.443 211.277 616.224 210.832C616.005 210.387 615.677 210.051 615.24 209.824C614.802 209.598 614.248 209.484 613.576 209.484C612.966 209.484 612.427 209.605 611.958 209.848C611.498 210.082 611.134 210.418 610.869 210.855C610.611 211.293 610.482 211.809 610.482 212.402H608.314C608.314 211.535 608.533 210.746 608.97 210.035C609.408 209.324 610.021 208.758 610.81 208.336C611.607 207.914 612.529 207.703 613.576 207.703C614.607 207.703 615.509 207.887 616.283 208.254C617.056 208.613 617.658 209.152 618.087 209.871C618.517 210.582 618.732 211.469 618.732 212.531C618.732 212.961 618.63 213.422 618.427 213.914C618.232 214.398 617.923 214.852 617.501 215.273C617.087 215.695 616.548 216.043 615.884 216.316C615.22 216.582 614.423 216.715 613.494 216.715H611.642V215.402ZM611.642 217.184V215.883H613.494C614.58 215.883 615.478 216.012 616.189 216.27C616.9 216.527 617.458 216.871 617.865 217.301C618.279 217.73 618.568 218.203 618.732 218.719C618.904 219.227 618.99 219.734 618.99 220.242C618.99 221.039 618.853 221.746 618.58 222.363C618.314 222.98 617.935 223.504 617.443 223.934C616.958 224.363 616.388 224.688 615.732 224.906C615.076 225.125 614.361 225.234 613.587 225.234C612.845 225.234 612.146 225.129 611.49 224.918C610.841 224.707 610.267 224.402 609.767 224.004C609.267 223.598 608.876 223.102 608.595 222.516C608.314 221.922 608.173 221.246 608.173 220.488H610.341C610.341 221.082 610.47 221.602 610.728 222.047C610.994 222.492 611.369 222.84 611.853 223.09C612.345 223.332 612.923 223.453 613.587 223.453C614.251 223.453 614.822 223.34 615.298 223.113C615.783 222.879 616.154 222.527 616.412 222.059C616.677 221.59 616.81 221 616.81 220.289C616.81 219.578 616.662 218.996 616.365 218.543C616.068 218.082 615.646 217.742 615.099 217.523C614.56 217.297 613.923 217.184 613.189 217.184H611.642Z" fill="#366CB1"/>
<path d="M360.598 223.219V225H349.43V223.441L355.02 217.219C355.707 216.453 356.238 215.805 356.613 215.273C356.996 214.734 357.262 214.254 357.41 213.832C357.566 213.402 357.645 212.965 357.645 212.52C357.645 211.957 357.527 211.449 357.293 210.996C357.066 210.535 356.73 210.168 356.285 209.895C355.84 209.621 355.301 209.484 354.668 209.484C353.91 209.484 353.277 209.633 352.77 209.93C352.27 210.219 351.895 210.625 351.645 211.148C351.395 211.672 351.27 212.273 351.27 212.953H349.102C349.102 211.992 349.312 211.113 349.734 210.316C350.156 209.52 350.781 208.887 351.609 208.418C352.438 207.941 353.457 207.703 354.668 207.703C355.746 207.703 356.668 207.895 357.434 208.277C358.199 208.652 358.785 209.184 359.191 209.871C359.605 210.551 359.812 211.348 359.812 212.262C359.812 212.762 359.727 213.27 359.555 213.785C359.391 214.293 359.16 214.801 358.863 215.309C358.574 215.816 358.234 216.316 357.844 216.809C357.461 217.301 357.051 217.785 356.613 218.262L352.043 223.219H360.598ZM373.149 215.109V217.711C373.149 219.109 373.024 220.289 372.774 221.25C372.524 222.211 372.165 222.984 371.696 223.57C371.227 224.156 370.661 224.582 369.997 224.848C369.34 225.105 368.598 225.234 367.77 225.234C367.114 225.234 366.508 225.152 365.954 224.988C365.399 224.824 364.899 224.562 364.454 224.203C364.016 223.836 363.641 223.359 363.329 222.773C363.016 222.188 362.778 221.477 362.614 220.641C362.45 219.805 362.368 218.828 362.368 217.711V215.109C362.368 213.711 362.493 212.539 362.743 211.594C363 210.648 363.364 209.891 363.833 209.32C364.301 208.742 364.864 208.328 365.52 208.078C366.184 207.828 366.926 207.703 367.747 207.703C368.411 207.703 369.02 207.785 369.575 207.949C370.137 208.105 370.637 208.359 371.075 208.711C371.512 209.055 371.883 209.516 372.188 210.094C372.5 210.664 372.739 211.363 372.903 212.191C373.067 213.02 373.149 213.992 373.149 215.109ZM370.969 218.062V214.746C370.969 213.98 370.922 213.309 370.829 212.73C370.743 212.145 370.614 211.645 370.442 211.23C370.27 210.816 370.051 210.48 369.786 210.223C369.528 209.965 369.227 209.777 368.883 209.66C368.547 209.535 368.168 209.473 367.747 209.473C367.231 209.473 366.774 209.57 366.375 209.766C365.977 209.953 365.641 210.254 365.368 210.668C365.102 211.082 364.899 211.625 364.758 212.297C364.618 212.969 364.547 213.785 364.547 214.746V218.062C364.547 218.828 364.59 219.504 364.676 220.09C364.77 220.676 364.907 221.184 365.086 221.613C365.266 222.035 365.485 222.383 365.743 222.656C366 222.93 366.297 223.133 366.633 223.266C366.977 223.391 367.356 223.453 367.77 223.453C368.301 223.453 368.766 223.352 369.165 223.148C369.563 222.945 369.895 222.629 370.161 222.199C370.434 221.762 370.637 221.203 370.77 220.523C370.903 219.836 370.969 219.016 370.969 218.062ZM386.638 223.219V225H375.47V223.441L381.06 217.219C381.747 216.453 382.278 215.805 382.653 215.273C383.036 214.734 383.302 214.254 383.45 213.832C383.606 213.402 383.685 212.965 383.685 212.52C383.685 211.957 383.567 211.449 383.333 210.996C383.106 210.535 382.77 210.168 382.325 209.895C381.88 209.621 381.341 209.484 380.708 209.484C379.95 209.484 379.317 209.633 378.81 209.93C378.31 210.219 377.935 210.625 377.685 211.148C377.435 211.672 377.31 212.273 377.31 212.953H375.142C375.142 211.992 375.353 211.113 375.774 210.316C376.196 209.52 376.821 208.887 377.649 208.418C378.478 207.941 379.497 207.703 380.708 207.703C381.786 207.703 382.708 207.895 383.474 208.277C384.239 208.652 384.825 209.184 385.231 209.871C385.645 210.551 385.853 211.348 385.853 212.262C385.853 212.762 385.767 213.27 385.595 213.785C385.431 214.293 385.2 214.801 384.903 215.309C384.614 215.816 384.274 216.316 383.884 216.809C383.501 217.301 383.091 217.785 382.653 218.262L378.083 223.219H386.638ZM395.603 207.844V225H393.435V210.551L389.064 212.145V210.188L395.263 207.844H395.603Z" fill="#366CB1"/>
<path d="M250.598 223.219V225H239.43V223.441L245.02 217.219C245.707 216.453 246.238 215.805 246.613 215.273C246.996 214.734 247.262 214.254 247.41 213.832C247.566 213.402 247.645 212.965 247.645 212.52C247.645 211.957 247.527 211.449 247.293 210.996C247.066 210.535 246.73 210.168 246.285 209.895C245.84 209.621 245.301 209.484 244.668 209.484C243.91 209.484 243.277 209.633 242.77 209.93C242.27 210.219 241.895 210.625 241.645 211.148C241.395 211.672 241.27 212.273 241.27 212.953H239.102C239.102 211.992 239.312 211.113 239.734 210.316C240.156 209.52 240.781 208.887 241.609 208.418C242.438 207.941 243.457 207.703 244.668 207.703C245.746 207.703 246.668 207.895 247.434 208.277C248.199 208.652 248.785 209.184 249.191 209.871C249.605 210.551 249.812 211.348 249.812 212.262C249.812 212.762 249.727 213.27 249.555 213.785C249.391 214.293 249.16 214.801 248.863 215.309C248.574 215.816 248.234 216.316 247.844 216.809C247.461 217.301 247.051 217.785 246.613 218.262L242.043 223.219H250.598ZM263.149 215.109V217.711C263.149 219.109 263.024 220.289 262.774 221.25C262.524 222.211 262.165 222.984 261.696 223.57C261.227 224.156 260.661 224.582 259.997 224.848C259.34 225.105 258.598 225.234 257.77 225.234C257.114 225.234 256.508 225.152 255.954 224.988C255.399 224.824 254.899 224.562 254.454 224.203C254.016 223.836 253.641 223.359 253.329 222.773C253.016 222.188 252.778 221.477 252.614 220.641C252.45 219.805 252.368 218.828 252.368 217.711V215.109C252.368 213.711 252.493 212.539 252.743 211.594C253 210.648 253.364 209.891 253.833 209.32C254.301 208.742 254.864 208.328 255.52 208.078C256.184 207.828 256.926 207.703 257.747 207.703C258.411 207.703 259.02 207.785 259.575 207.949C260.137 208.105 260.637 208.359 261.075 208.711C261.512 209.055 261.883 209.516 262.188 210.094C262.5 210.664 262.739 211.363 262.903 212.191C263.067 213.02 263.149 213.992 263.149 215.109ZM260.969 218.062V214.746C260.969 213.98 260.922 213.309 260.829 212.73C260.743 212.145 260.614 211.645 260.442 211.23C260.27 210.816 260.051 210.48 259.786 210.223C259.528 209.965 259.227 209.777 258.883 209.66C258.547 209.535 258.168 209.473 257.747 209.473C257.231 209.473 256.774 209.57 256.375 209.766C255.977 209.953 255.641 210.254 255.368 210.668C255.102 211.082 254.899 211.625 254.758 212.297C254.618 212.969 254.547 213.785 254.547 214.746V218.062C254.547 218.828 254.59 219.504 254.676 220.09C254.77 220.676 254.907 221.184 255.086 221.613C255.266 222.035 255.485 222.383 255.743 222.656C256 222.93 256.297 223.133 256.633 223.266C256.977 223.391 257.356 223.453 257.77 223.453C258.301 223.453 258.766 223.352 259.165 223.148C259.563 222.945 259.895 222.629 260.161 222.199C260.434 221.762 260.637 221.203 260.77 220.523C260.903 219.836 260.969 219.016 260.969 218.062ZM276.638 223.219V225H265.47V223.441L271.06 217.219C271.747 216.453 272.278 215.805 272.653 215.273C273.036 214.734 273.302 214.254 273.45 213.832C273.606 213.402 273.685 212.965 273.685 212.52C273.685 211.957 273.567 211.449 273.333 210.996C273.106 210.535 272.77 210.168 272.325 209.895C271.88 209.621 271.341 209.484 270.708 209.484C269.95 209.484 269.317 209.633 268.81 209.93C268.31 210.219 267.935 210.625 267.685 211.148C267.435 211.672 267.31 212.273 267.31 212.953H265.142C265.142 211.992 265.353 211.113 265.774 210.316C266.196 209.52 266.821 208.887 267.649 208.418C268.478 207.941 269.497 207.703 270.708 207.703C271.786 207.703 272.708 207.895 273.474 208.277C274.239 208.652 274.825 209.184 275.231 209.871C275.645 210.551 275.853 211.348 275.853 212.262C275.853 212.762 275.767 213.27 275.595 213.785C275.431 214.293 275.2 214.801 274.903 215.309C274.614 215.816 274.274 216.316 273.884 216.809C273.501 217.301 273.091 217.785 272.653 218.262L268.083 223.219H276.638ZM289.189 215.109V217.711C289.189 219.109 289.064 220.289 288.814 221.25C288.564 222.211 288.205 222.984 287.736 223.57C287.267 224.156 286.701 224.582 286.037 224.848C285.38 225.105 284.638 225.234 283.81 225.234C283.154 225.234 282.548 225.152 281.994 224.988C281.439 224.824 280.939 224.562 280.494 224.203C280.056 223.836 279.681 223.359 279.369 222.773C279.056 222.188 278.818 221.477 278.654 220.641C278.49 219.805 278.408 218.828 278.408 217.711V215.109C278.408 213.711 278.533 212.539 278.783 211.594C279.04 210.648 279.404 209.891 279.873 209.32C280.341 208.742 280.904 208.328 281.56 208.078C282.224 207.828 282.966 207.703 283.787 207.703C284.451 207.703 285.06 207.785 285.615 207.949C286.177 208.105 286.677 208.359 287.115 208.711C287.552 209.055 287.923 209.516 288.228 210.094C288.54 210.664 288.779 211.363 288.943 212.191C289.107 213.02 289.189 213.992 289.189 215.109ZM287.009 218.062V214.746C287.009 213.98 286.962 213.309 286.869 212.73C286.783 212.145 286.654 211.645 286.482 211.23C286.31 210.816 286.091 210.48 285.826 210.223C285.568 209.965 285.267 209.777 284.923 209.66C284.587 209.535 284.208 209.473 283.787 209.473C283.271 209.473 282.814 209.57 282.415 209.766C282.017 209.953 281.681 210.254 281.408 210.668C281.142 211.082 280.939 211.625 280.798 212.297C280.658 212.969 280.587 213.785 280.587 214.746V218.062C280.587 218.828 280.63 219.504 280.716 220.09C280.81 220.676 280.947 221.184 281.126 221.613C281.306 222.035 281.525 222.383 281.783 222.656C282.04 222.93 282.337 223.133 282.673 223.266C283.017 223.391 283.396 223.453 283.81 223.453C284.341 223.453 284.806 223.352 285.205 223.148C285.603 222.945 285.935 222.629 286.201 222.199C286.474 221.762 286.677 221.203 286.81 220.523C286.943 219.836 287.009 219.016 287.009 218.062Z" fill="#366CB1"/>
<path d="M140.598 223.219V225H129.43V223.441L135.02 217.219C135.707 216.453 136.238 215.805 136.613 215.273C136.996 214.734 137.262 214.254 137.41 213.832C137.566 213.402 137.645 212.965 137.645 212.52C137.645 211.957 137.527 211.449 137.293 210.996C137.066 210.535 136.73 210.168 136.285 209.895C135.84 209.621 135.301 209.484 134.668 209.484C133.91 209.484 133.277 209.633 132.77 209.93C132.27 210.219 131.895 210.625 131.645 211.148C131.395 211.672 131.27 212.273 131.27 212.953H129.102C129.102 211.992 129.312 211.113 129.734 210.316C130.156 209.52 130.781 208.887 131.609 208.418C132.438 207.941 133.457 207.703 134.668 207.703C135.746 207.703 136.668 207.895 137.434 208.277C138.199 208.652 138.785 209.184 139.191 209.871C139.605 210.551 139.812 211.348 139.812 212.262C139.812 212.762 139.727 213.27 139.555 213.785C139.391 214.293 139.16 214.801 138.863 215.309C138.574 215.816 138.234 216.316 137.844 216.809C137.461 217.301 137.051 217.785 136.613 218.262L132.043 223.219H140.598ZM153.149 215.109V217.711C153.149 219.109 153.024 220.289 152.774 221.25C152.524 222.211 152.165 222.984 151.696 223.57C151.227 224.156 150.661 224.582 149.997 224.848C149.34 225.105 148.598 225.234 147.77 225.234C147.114 225.234 146.508 225.152 145.954 224.988C145.399 224.824 144.899 224.562 144.454 224.203C144.016 223.836 143.641 223.359 143.329 222.773C143.016 222.188 142.778 221.477 142.614 220.641C142.45 219.805 142.368 218.828 142.368 217.711V215.109C142.368 213.711 142.493 212.539 142.743 211.594C143 210.648 143.364 209.891 143.833 209.32C144.301 208.742 144.864 208.328 145.52 208.078C146.184 207.828 146.926 207.703 147.747 207.703C148.411 207.703 149.02 207.785 149.575 207.949C150.137 208.105 150.637 208.359 151.075 208.711C151.512 209.055 151.883 209.516 152.188 210.094C152.5 210.664 152.739 211.363 152.903 212.191C153.067 213.02 153.149 213.992 153.149 215.109ZM150.969 218.062V214.746C150.969 213.98 150.922 213.309 150.829 212.73C150.743 212.145 150.614 211.645 150.442 211.23C150.27 210.816 150.051 210.48 149.786 210.223C149.528 209.965 149.227 209.777 148.883 209.66C148.547 209.535 148.168 209.473 147.747 209.473C147.231 209.473 146.774 209.57 146.375 209.766C145.977 209.953 145.641 210.254 145.368 210.668C145.102 211.082 144.899 211.625 144.758 212.297C144.618 212.969 144.547 213.785 144.547 214.746V218.062C144.547 218.828 144.59 219.504 144.676 220.09C144.77 220.676 144.907 221.184 145.086 221.613C145.266 222.035 145.485 222.383 145.743 222.656C146 222.93 146.297 223.133 146.633 223.266C146.977 223.391 147.356 223.453 147.77 223.453C148.301 223.453 148.766 223.352 149.165 223.148C149.563 222.945 149.895 222.629 150.161 222.199C150.434 221.762 150.637 221.203 150.77 220.523C150.903 219.836 150.969 219.016 150.969 218.062ZM166.638 223.219V225H155.47V223.441L161.06 217.219C161.747 216.453 162.278 215.805 162.653 215.273C163.036 214.734 163.302 214.254 163.45 213.832C163.606 213.402 163.685 212.965 163.685 212.52C163.685 211.957 163.567 211.449 163.333 210.996C163.106 210.535 162.77 210.168 162.325 209.895C161.88 209.621 161.341 209.484 160.708 209.484C159.95 209.484 159.317 209.633 158.81 209.93C158.31 210.219 157.935 210.625 157.685 211.148C157.435 211.672 157.31 212.273 157.31 212.953H155.142C155.142 211.992 155.353 211.113 155.774 210.316C156.196 209.52 156.821 208.887 157.649 208.418C158.478 207.941 159.497 207.703 160.708 207.703C161.786 207.703 162.708 207.895 163.474 208.277C164.239 208.652 164.825 209.184 165.231 209.871C165.645 210.551 165.853 211.348 165.853 212.262C165.853 212.762 165.767 213.27 165.595 213.785C165.431 214.293 165.2 214.801 164.903 215.309C164.614 215.816 164.274 216.316 163.884 216.809C163.501 217.301 163.091 217.785 162.653 218.262L158.083 223.219H166.638ZM179.189 215.109V217.711C179.189 219.109 179.064 220.289 178.814 221.25C178.564 222.211 178.205 222.984 177.736 223.57C177.267 224.156 176.701 224.582 176.037 224.848C175.38 225.105 174.638 225.234 173.81 225.234C173.154 225.234 172.548 225.152 171.994 224.988C171.439 224.824 170.939 224.562 170.494 224.203C170.056 223.836 169.681 223.359 169.369 222.773C169.056 222.188 168.818 221.477 168.654 220.641C168.49 219.805 168.408 218.828 168.408 217.711V215.109C168.408 213.711 168.533 212.539 168.783 211.594C169.04 210.648 169.404 209.891 169.873 209.32C170.341 208.742 170.904 208.328 171.56 208.078C172.224 207.828 172.966 207.703 173.787 207.703C174.451 207.703 175.06 207.785 175.615 207.949C176.177 208.105 176.677 208.359 177.115 208.711C177.552 209.055 177.923 209.516 178.228 210.094C178.54 210.664 178.779 211.363 178.943 212.191C179.107 213.02 179.189 213.992 179.189 215.109ZM177.009 218.062V214.746C177.009 213.98 176.962 213.309 176.869 212.73C176.783 212.145 176.654 211.645 176.482 211.23C176.31 210.816 176.091 210.48 175.826 210.223C175.568 209.965 175.267 209.777 174.923 209.66C174.587 209.535 174.208 209.473 173.787 209.473C173.271 209.473 172.814 209.57 172.415 209.766C172.017 209.953 171.681 210.254 171.408 210.668C171.142 211.082 170.939 211.625 170.798 212.297C170.658 212.969 170.587 213.785 170.587 214.746V218.062C170.587 218.828 170.63 219.504 170.716 220.09C170.81 220.676 170.947 221.184 171.126 221.613C171.306 222.035 171.525 222.383 171.783 222.656C172.04 222.93 172.337 223.133 172.673 223.266C173.017 223.391 173.396 223.453 173.81 223.453C174.341 223.453 174.806 223.352 175.205 223.148C175.603 222.945 175.935 222.629 176.201 222.199C176.474 221.762 176.677 221.203 176.81 220.523C176.943 219.836 177.009 219.016 177.009 218.062Z" fill="#366CB1"/>
<path d="M6.40723 173.133V186H4.78125V175.163L1.50293 176.358V174.891L6.15234 173.133H6.40723ZM18.8617 178.582V180.533C18.8617 181.582 18.7679 182.467 18.5804 183.188C18.3929 183.908 18.1234 184.488 17.7718 184.928C17.4203 185.367 16.9955 185.687 16.4974 185.886C16.0052 186.079 15.4486 186.176 14.8275 186.176C14.3353 186.176 13.8812 186.114 13.4652 185.991C13.0492 185.868 12.6742 185.672 12.3402 185.402C12.0121 185.127 11.7308 184.77 11.4964 184.33C11.2621 183.891 11.0834 183.357 10.9603 182.73C10.8373 182.104 10.7757 181.371 10.7757 180.533V178.582C10.7757 177.533 10.8695 176.654 11.057 175.945C11.2504 175.236 11.5228 174.668 11.8744 174.24C12.2259 173.807 12.6478 173.496 13.14 173.309C13.638 173.121 14.1947 173.027 14.8099 173.027C15.308 173.027 15.765 173.089 16.181 173.212C16.6029 173.329 16.9779 173.52 17.306 173.783C17.6341 174.041 17.9125 174.387 18.141 174.82C18.3754 175.248 18.5541 175.772 18.6771 176.394C18.8002 177.015 18.8617 177.744 18.8617 178.582ZM17.2269 180.797V178.31C17.2269 177.735 17.1918 177.231 17.1214 176.798C17.057 176.358 16.9603 175.983 16.8314 175.673C16.7025 175.362 16.5384 175.11 16.3392 174.917C16.1459 174.724 15.9203 174.583 15.6625 174.495C15.4105 174.401 15.1263 174.354 14.8099 174.354C14.4232 174.354 14.0804 174.428 13.7816 174.574C13.4828 174.715 13.2308 174.94 13.0257 175.251C12.8265 175.562 12.6742 175.969 12.5687 176.473C12.4632 176.977 12.4105 177.589 12.4105 178.31V180.797C12.4105 181.371 12.4427 181.878 12.5072 182.317C12.5775 182.757 12.68 183.138 12.8148 183.46C12.9496 183.776 13.1136 184.037 13.307 184.242C13.5004 184.447 13.723 184.6 13.975 184.699C14.2328 184.793 14.517 184.84 14.8275 184.84C15.2259 184.84 15.5746 184.764 15.8734 184.611C16.1722 184.459 16.4213 184.222 16.6205 183.899C16.8255 183.571 16.9779 183.152 17.0775 182.643C17.1771 182.127 17.2269 181.512 17.2269 180.797ZM28.6798 184.84C29.0665 184.84 29.4239 184.761 29.752 184.603C30.0802 184.444 30.3497 184.228 30.5606 183.952C30.7716 183.671 30.8917 183.352 30.921 182.994H32.4679C32.4386 183.557 32.2481 184.081 31.8966 184.567C31.5509 185.048 31.0968 185.438 30.5343 185.736C29.9718 186.029 29.3536 186.176 28.6798 186.176C27.9649 186.176 27.3409 186.05 26.8077 185.798C26.2804 185.546 25.8409 185.2 25.4893 184.761C25.1436 184.321 24.8829 183.817 24.7071 183.249C24.5372 182.675 24.4522 182.068 24.4522 181.43V181.061C24.4522 180.422 24.5372 179.818 24.7071 179.25C24.8829 178.676 25.1436 178.169 25.4893 177.729C25.8409 177.29 26.2804 176.944 26.8077 176.692C27.3409 176.44 27.9649 176.314 28.6798 176.314C29.4239 176.314 30.0743 176.467 30.6309 176.771C31.1876 177.07 31.6241 177.48 31.9405 178.002C32.2628 178.518 32.4386 179.104 32.4679 179.76H30.921C30.8917 179.367 30.7804 179.013 30.587 178.696C30.3995 178.38 30.1417 178.128 29.8136 177.94C29.4913 177.747 29.1134 177.65 28.6798 177.65C28.1817 177.65 27.7628 177.75 27.4229 177.949C27.0889 178.143 26.8223 178.406 26.6231 178.74C26.4298 179.068 26.2891 179.435 26.2013 179.839C26.1192 180.237 26.0782 180.645 26.0782 181.061V181.43C26.0782 181.846 26.1192 182.256 26.2013 182.66C26.2833 183.064 26.421 183.431 26.6143 183.759C26.8136 184.087 27.0802 184.351 27.4141 184.55C27.754 184.743 28.1759 184.84 28.6798 184.84ZM35.7026 172.5V186H34.0678V172.5H35.7026ZM39.7195 176.49V186H38.0848V176.49H39.7195ZM37.9617 173.968C37.9617 173.704 38.0408 173.481 38.199 173.3C38.3631 173.118 38.6033 173.027 38.9197 173.027C39.2303 173.027 39.4676 173.118 39.6316 173.3C39.8016 173.481 39.8865 173.704 39.8865 173.968C39.8865 174.22 39.8016 174.437 39.6316 174.618C39.4676 174.794 39.2303 174.882 38.9197 174.882C38.6033 174.882 38.3631 174.794 38.199 174.618C38.0408 174.437 37.9617 174.22 37.9617 173.968ZM45.9162 186.176C45.2541 186.176 44.6535 186.064 44.1144 185.842C43.5812 185.613 43.1213 185.294 42.7345 184.884C42.3537 184.474 42.0607 183.987 41.8556 183.425C41.6505 182.862 41.548 182.247 41.548 181.579V181.21C41.548 180.437 41.6623 179.748 41.8908 179.145C42.1193 178.535 42.4298 178.02 42.8224 177.598C43.215 177.176 43.6603 176.856 44.1584 176.64C44.6564 176.423 45.172 176.314 45.7052 176.314C46.3849 176.314 46.9709 176.432 47.463 176.666C47.9611 176.9 48.3683 177.229 48.6847 177.65C49.0011 178.066 49.2355 178.559 49.3879 179.127C49.5402 179.689 49.6164 180.305 49.6164 180.973V181.702H42.5148V180.375H47.9904V180.252C47.967 179.83 47.8791 179.42 47.7267 179.021C47.5802 178.623 47.3459 178.295 47.0236 178.037C46.7013 177.779 46.2619 177.65 45.7052 177.65C45.3361 177.65 44.9963 177.729 44.6857 177.888C44.3752 178.04 44.1086 178.269 43.8859 178.573C43.6632 178.878 43.4904 179.25 43.3673 179.689C43.2443 180.129 43.1828 180.636 43.1828 181.21V181.579C43.1828 182.03 43.2443 182.455 43.3673 182.854C43.4963 183.246 43.6808 183.592 43.9211 183.891C44.1671 184.189 44.463 184.424 44.8088 184.594C45.1603 184.764 45.5588 184.849 46.0041 184.849C46.5783 184.849 47.0646 184.731 47.463 184.497C47.8615 184.263 48.2101 183.949 48.5089 183.557L49.4933 184.339C49.2882 184.649 49.0275 184.945 48.7111 185.227C48.3947 185.508 48.005 185.736 47.5421 185.912C47.0851 186.088 46.5431 186.176 45.9162 186.176ZM52.7808 178.521V186H51.1548V176.49H52.6929L52.7808 178.521ZM52.3941 180.885L51.7173 180.858C51.7232 180.208 51.8198 179.607 52.0073 179.057C52.1948 178.5 52.4585 178.017 52.7984 177.606C53.1382 177.196 53.5425 176.88 54.0112 176.657C54.4859 176.429 55.0103 176.314 55.5845 176.314C56.0532 176.314 56.4751 176.379 56.8501 176.508C57.2251 176.631 57.5445 176.83 57.8081 177.105C58.0777 177.381 58.2827 177.738 58.4234 178.178C58.564 178.611 58.6343 179.142 58.6343 179.769V186H56.9995V179.751C56.9995 179.253 56.9263 178.854 56.7798 178.556C56.6333 178.251 56.4195 178.031 56.1382 177.896C55.857 177.756 55.5112 177.686 55.1011 177.686C54.6968 177.686 54.3277 177.771 53.9937 177.94C53.6655 178.11 53.3814 178.345 53.1411 178.644C52.9068 178.942 52.7222 179.285 52.5874 179.672C52.4585 180.053 52.3941 180.457 52.3941 180.885ZM64.7255 176.49V177.738H59.5839V176.49H64.7255ZM61.3241 174.179H62.9501V183.645C62.9501 183.967 62.9999 184.21 63.0995 184.374C63.1991 184.538 63.328 184.646 63.4862 184.699C63.6444 184.752 63.8143 184.778 63.996 184.778C64.1307 184.778 64.2714 184.767 64.4179 184.743C64.5702 184.714 64.6845 184.69 64.7606 184.673L64.7694 186C64.6405 186.041 64.4706 186.079 64.2596 186.114C64.0546 186.155 63.8055 186.176 63.5126 186.176C63.1141 186.176 62.7479 186.097 62.4139 185.938C62.08 185.78 61.8134 185.517 61.6141 185.147C61.4208 184.772 61.3241 184.269 61.3241 183.636V174.179ZM71.8098 183.478C71.8098 183.243 71.7571 183.026 71.6516 182.827C71.552 182.622 71.344 182.438 71.0276 182.273C70.717 182.104 70.2483 181.957 69.6213 181.834C69.094 181.723 68.6164 181.591 68.1887 181.438C67.7668 181.286 67.4065 181.102 67.1077 180.885C66.8147 180.668 66.5891 180.413 66.4309 180.12C66.2727 179.827 66.1936 179.484 66.1936 179.092C66.1936 178.717 66.2756 178.362 66.4397 178.028C66.6096 177.694 66.8469 177.398 67.1516 177.141C67.4622 176.883 67.8342 176.681 68.2678 176.534C68.7014 176.388 69.1848 176.314 69.718 176.314C70.4797 176.314 71.1301 176.449 71.6692 176.719C72.2082 176.988 72.6213 177.349 72.9084 177.8C73.1955 178.245 73.3391 178.74 73.3391 179.285H71.7131C71.7131 179.021 71.634 178.767 71.4758 178.521C71.3235 178.269 71.0979 178.061 70.7991 177.896C70.5061 177.732 70.1457 177.65 69.718 177.65C69.2668 177.65 68.9006 177.721 68.6194 177.861C68.344 177.996 68.1418 178.169 68.0129 178.38C67.8899 178.591 67.8284 178.813 67.8284 179.048C67.8284 179.224 67.8577 179.382 67.9163 179.522C67.9807 179.657 68.092 179.783 68.2502 179.9C68.4084 180.012 68.6311 180.117 68.9182 180.217C69.2053 180.316 69.5715 180.416 70.0168 180.516C70.7961 180.691 71.4377 180.902 71.9416 181.148C72.4455 181.395 72.8205 181.696 73.0666 182.054C73.3127 182.411 73.4358 182.845 73.4358 183.354C73.4358 183.771 73.3479 184.151 73.1721 184.497C73.0022 184.843 72.7532 185.142 72.425 185.394C72.1028 185.64 71.7161 185.833 71.2649 185.974C70.8196 186.108 70.3186 186.176 69.762 186.176C68.9241 186.176 68.2151 186.026 67.635 185.728C67.0549 185.429 66.6155 185.042 66.3166 184.567C66.0178 184.093 65.8684 183.592 65.8684 183.064H67.5032C67.5266 183.51 67.6555 183.864 67.8899 184.128C68.1243 184.386 68.4114 184.57 68.7512 184.682C69.0911 184.787 69.428 184.84 69.762 184.84C70.2073 184.84 70.5793 184.781 70.8782 184.664C71.1829 184.547 71.4143 184.386 71.5725 184.181C71.7307 183.976 71.8098 183.741 71.8098 183.478Z" fill="#366CB1"/>
<path d="M9.44824 143.664V145H1.07227V143.831L5.26465 139.164C5.78027 138.59 6.17871 138.104 6.45996 137.705C6.74707 137.301 6.94629 136.94 7.05762 136.624C7.1748 136.302 7.2334 135.974 7.2334 135.64C7.2334 135.218 7.14551 134.837 6.96973 134.497C6.7998 134.151 6.54785 133.876 6.21387 133.671C5.87988 133.466 5.47559 133.363 5.00098 133.363C4.43262 133.363 3.95801 133.475 3.57715 133.697C3.20215 133.914 2.9209 134.219 2.7334 134.611C2.5459 135.004 2.45215 135.455 2.45215 135.965H0.826172C0.826172 135.244 0.984375 134.585 1.30078 133.987C1.61719 133.39 2.08594 132.915 2.70703 132.563C3.32812 132.206 4.09277 132.027 5.00098 132.027C5.80957 132.027 6.50098 132.171 7.0752 132.458C7.64941 132.739 8.08887 133.138 8.39355 133.653C8.7041 134.163 8.85938 134.761 8.85938 135.446C8.85938 135.821 8.79492 136.202 8.66602 136.589C8.54297 136.97 8.37012 137.351 8.14746 137.731C7.93066 138.112 7.67578 138.487 7.38281 138.856C7.0957 139.226 6.78809 139.589 6.45996 139.946L3.03223 143.664H9.44824ZM18.8617 137.582V139.533C18.8617 140.582 18.7679 141.467 18.5804 142.188C18.3929 142.908 18.1234 143.488 17.7718 143.928C17.4203 144.367 16.9955 144.687 16.4974 144.886C16.0052 145.079 15.4486 145.176 14.8275 145.176C14.3353 145.176 13.8812 145.114 13.4652 144.991C13.0492 144.868 12.6742 144.672 12.3402 144.402C12.0121 144.127 11.7308 143.77 11.4964 143.33C11.2621 142.891 11.0834 142.357 10.9603 141.73C10.8373 141.104 10.7757 140.371 10.7757 139.533V137.582C10.7757 136.533 10.8695 135.654 11.057 134.945C11.2504 134.236 11.5228 133.668 11.8744 133.24C12.2259 132.807 12.6478 132.496 13.14 132.309C13.638 132.121 14.1947 132.027 14.8099 132.027C15.308 132.027 15.765 132.089 16.181 132.212C16.6029 132.329 16.9779 132.52 17.306 132.783C17.6341 133.041 17.9125 133.387 18.141 133.82C18.3754 134.248 18.5541 134.772 18.6771 135.394C18.8002 136.015 18.8617 136.744 18.8617 137.582ZM17.2269 139.797V137.31C17.2269 136.735 17.1918 136.231 17.1214 135.798C17.057 135.358 16.9603 134.983 16.8314 134.673C16.7025 134.362 16.5384 134.11 16.3392 133.917C16.1459 133.724 15.9203 133.583 15.6625 133.495C15.4105 133.401 15.1263 133.354 14.8099 133.354C14.4232 133.354 14.0804 133.428 13.7816 133.574C13.4828 133.715 13.2308 133.94 13.0257 134.251C12.8265 134.562 12.6742 134.969 12.5687 135.473C12.4632 135.977 12.4105 136.589 12.4105 137.31V139.797C12.4105 140.371 12.4427 140.878 12.5072 141.317C12.5775 141.757 12.68 142.138 12.8148 142.46C12.9496 142.776 13.1136 143.037 13.307 143.242C13.5004 143.447 13.723 143.6 13.975 143.699C14.2328 143.793 14.517 143.84 14.8275 143.84C15.2259 143.84 15.5746 143.764 15.8734 143.611C16.1722 143.459 16.4213 143.222 16.6205 142.899C16.8255 142.571 16.9779 142.152 17.0775 141.643C17.1771 141.127 17.2269 140.512 17.2269 139.797ZM28.6798 143.84C29.0665 143.84 29.4239 143.761 29.752 143.603C30.0802 143.444 30.3497 143.228 30.5606 142.952C30.7716 142.671 30.8917 142.352 30.921 141.994H32.4679C32.4386 142.557 32.2481 143.081 31.8966 143.567C31.5509 144.048 31.0968 144.438 30.5343 144.736C29.9718 145.029 29.3536 145.176 28.6798 145.176C27.9649 145.176 27.3409 145.05 26.8077 144.798C26.2804 144.546 25.8409 144.2 25.4893 143.761C25.1436 143.321 24.8829 142.817 24.7071 142.249C24.5372 141.675 24.4522 141.068 24.4522 140.43V140.061C24.4522 139.422 24.5372 138.818 24.7071 138.25C24.8829 137.676 25.1436 137.169 25.4893 136.729C25.8409 136.29 26.2804 135.944 26.8077 135.692C27.3409 135.44 27.9649 135.314 28.6798 135.314C29.4239 135.314 30.0743 135.467 30.6309 135.771C31.1876 136.07 31.6241 136.48 31.9405 137.002C32.2628 137.518 32.4386 138.104 32.4679 138.76H30.921C30.8917 138.367 30.7804 138.013 30.587 137.696C30.3995 137.38 30.1417 137.128 29.8136 136.94C29.4913 136.747 29.1134 136.65 28.6798 136.65C28.1817 136.65 27.7628 136.75 27.4229 136.949C27.0889 137.143 26.8223 137.406 26.6231 137.74C26.4298 138.068 26.2891 138.435 26.2013 138.839C26.1192 139.237 26.0782 139.645 26.0782 140.061V140.43C26.0782 140.846 26.1192 141.256 26.2013 141.66C26.2833 142.064 26.421 142.431 26.6143 142.759C26.8136 143.087 27.0802 143.351 27.4141 143.55C27.754 143.743 28.1759 143.84 28.6798 143.84ZM35.7026 131.5V145H34.0678V131.5H35.7026ZM39.7195 135.49V145H38.0848V135.49H39.7195ZM37.9617 132.968C37.9617 132.704 38.0408 132.481 38.199 132.3C38.3631 132.118 38.6033 132.027 38.9197 132.027C39.2303 132.027 39.4676 132.118 39.6316 132.3C39.8016 132.481 39.8865 132.704 39.8865 132.968C39.8865 133.22 39.8016 133.437 39.6316 133.618C39.4676 133.794 39.2303 133.882 38.9197 133.882C38.6033 133.882 38.3631 133.794 38.199 133.618C38.0408 133.437 37.9617 133.22 37.9617 132.968ZM45.9162 145.176C45.2541 145.176 44.6535 145.064 44.1144 144.842C43.5812 144.613 43.1213 144.294 42.7345 143.884C42.3537 143.474 42.0607 142.987 41.8556 142.425C41.6505 141.862 41.548 141.247 41.548 140.579V140.21C41.548 139.437 41.6623 138.748 41.8908 138.145C42.1193 137.535 42.4298 137.02 42.8224 136.598C43.215 136.176 43.6603 135.856 44.1584 135.64C44.6564 135.423 45.172 135.314 45.7052 135.314C46.3849 135.314 46.9709 135.432 47.463 135.666C47.9611 135.9 48.3683 136.229 48.6847 136.65C49.0011 137.066 49.2355 137.559 49.3879 138.127C49.5402 138.689 49.6164 139.305 49.6164 139.973V140.702H42.5148V139.375H47.9904V139.252C47.967 138.83 47.8791 138.42 47.7267 138.021C47.5802 137.623 47.3459 137.295 47.0236 137.037C46.7013 136.779 46.2619 136.65 45.7052 136.65C45.3361 136.65 44.9963 136.729 44.6857 136.888C44.3752 137.04 44.1086 137.269 43.8859 137.573C43.6632 137.878 43.4904 138.25 43.3673 138.689C43.2443 139.129 43.1828 139.636 43.1828 140.21V140.579C43.1828 141.03 43.2443 141.455 43.3673 141.854C43.4963 142.246 43.6808 142.592 43.9211 142.891C44.1671 143.189 44.463 143.424 44.8088 143.594C45.1603 143.764 45.5588 143.849 46.0041 143.849C46.5783 143.849 47.0646 143.731 47.463 143.497C47.8615 143.263 48.2101 142.949 48.5089 142.557L49.4933 143.339C49.2882 143.649 49.0275 143.945 48.7111 144.227C48.3947 144.508 48.005 144.736 47.5421 144.912C47.0851 145.088 46.5431 145.176 45.9162 145.176ZM52.7808 137.521V145H51.1548V135.49H52.6929L52.7808 137.521ZM52.3941 139.885L51.7173 139.858C51.7232 139.208 51.8198 138.607 52.0073 138.057C52.1948 137.5 52.4585 137.017 52.7984 136.606C53.1382 136.196 53.5425 135.88 54.0112 135.657C54.4859 135.429 55.0103 135.314 55.5845 135.314C56.0532 135.314 56.4751 135.379 56.8501 135.508C57.2251 135.631 57.5445 135.83 57.8081 136.105C58.0777 136.381 58.2827 136.738 58.4234 137.178C58.564 137.611 58.6343 138.142 58.6343 138.769V145H56.9995V138.751C56.9995 138.253 56.9263 137.854 56.7798 137.556C56.6333 137.251 56.4195 137.031 56.1382 136.896C55.857 136.756 55.5112 136.686 55.1011 136.686C54.6968 136.686 54.3277 136.771 53.9937 136.94C53.6655 137.11 53.3814 137.345 53.1411 137.644C52.9068 137.942 52.7222 138.285 52.5874 138.672C52.4585 139.053 52.3941 139.457 52.3941 139.885ZM64.7255 135.49V136.738H59.5839V135.49H64.7255ZM61.3241 133.179H62.9501V142.645C62.9501 142.967 62.9999 143.21 63.0995 143.374C63.1991 143.538 63.328 143.646 63.4862 143.699C63.6444 143.752 63.8143 143.778 63.996 143.778C64.1307 143.778 64.2714 143.767 64.4179 143.743C64.5702 143.714 64.6845 143.69 64.7606 143.673L64.7694 145C64.6405 145.041 64.4706 145.079 64.2596 145.114C64.0546 145.155 63.8055 145.176 63.5126 145.176C63.1141 145.176 62.7479 145.097 62.4139 144.938C62.08 144.78 61.8134 144.517 61.6141 144.147C61.4208 143.772 61.3241 143.269 61.3241 142.636V133.179ZM71.8098 142.478C71.8098 142.243 71.7571 142.026 71.6516 141.827C71.552 141.622 71.344 141.438 71.0276 141.273C70.717 141.104 70.2483 140.957 69.6213 140.834C69.094 140.723 68.6164 140.591 68.1887 140.438C67.7668 140.286 67.4065 140.102 67.1077 139.885C66.8147 139.668 66.5891 139.413 66.4309 139.12C66.2727 138.827 66.1936 138.484 66.1936 138.092C66.1936 137.717 66.2756 137.362 66.4397 137.028C66.6096 136.694 66.8469 136.398 67.1516 136.141C67.4622 135.883 67.8342 135.681 68.2678 135.534C68.7014 135.388 69.1848 135.314 69.718 135.314C70.4797 135.314 71.1301 135.449 71.6692 135.719C72.2082 135.988 72.6213 136.349 72.9084 136.8C73.1955 137.245 73.3391 137.74 73.3391 138.285H71.7131C71.7131 138.021 71.634 137.767 71.4758 137.521C71.3235 137.269 71.0979 137.061 70.7991 136.896C70.5061 136.732 70.1457 136.65 69.718 136.65C69.2668 136.65 68.9006 136.721 68.6194 136.861C68.344 136.996 68.1418 137.169 68.0129 137.38C67.8899 137.591 67.8284 137.813 67.8284 138.048C67.8284 138.224 67.8577 138.382 67.9163 138.522C67.9807 138.657 68.092 138.783 68.2502 138.9C68.4084 139.012 68.6311 139.117 68.9182 139.217C69.2053 139.316 69.5715 139.416 70.0168 139.516C70.7961 139.691 71.4377 139.902 71.9416 140.148C72.4455 140.395 72.8205 140.696 73.0666 141.054C73.3127 141.411 73.4358 141.845 73.4358 142.354C73.4358 142.771 73.3479 143.151 73.1721 143.497C73.0022 143.843 72.7532 144.142 72.425 144.394C72.1028 144.64 71.7161 144.833 71.2649 144.974C70.8196 145.108 70.3186 145.176 69.762 145.176C68.9241 145.176 68.2151 145.026 67.635 144.728C67.0549 144.429 66.6155 144.042 66.3166 143.567C66.0178 143.093 65.8684 142.592 65.8684 142.064H67.5032C67.5266 142.51 67.6555 142.864 67.8899 143.128C68.1243 143.386 68.4114 143.57 68.7512 143.682C69.0911 143.787 69.428 143.84 69.762 143.84C70.2073 143.84 70.5793 143.781 70.8782 143.664C71.1829 143.547 71.4143 143.386 71.5725 143.181C71.7307 142.976 71.8098 142.741 71.8098 142.478Z" fill="#366CB1"/>
<path d="M3.43652 96.8018H4.59668C5.16504 96.8018 5.63379 96.708 6.00293 96.5205C6.37793 96.3271 6.65625 96.0664 6.83789 95.7383C7.02539 95.4043 7.11914 95.0293 7.11914 94.6133C7.11914 94.1211 7.03711 93.708 6.87305 93.374C6.70898 93.04 6.46289 92.7881 6.13477 92.6182C5.80664 92.4482 5.39062 92.3633 4.88672 92.3633C4.42969 92.3633 4.02539 92.4541 3.67383 92.6357C3.32812 92.8115 3.05566 93.0635 2.85645 93.3916C2.66309 93.7197 2.56641 94.1064 2.56641 94.5518H0.94043C0.94043 93.9014 1.10449 93.3096 1.43262 92.7764C1.76074 92.2432 2.2207 91.8184 2.8125 91.502C3.41016 91.1855 4.10156 91.0273 4.88672 91.0273C5.66016 91.0273 6.33691 91.165 6.91699 91.4404C7.49707 91.71 7.94824 92.1143 8.27051 92.6533C8.59277 93.1865 8.75391 93.8516 8.75391 94.6484C8.75391 94.9707 8.67773 95.3164 8.52539 95.6855C8.37891 96.0488 8.14746 96.3887 7.83105 96.7051C7.52051 97.0215 7.11621 97.2822 6.61816 97.4873C6.12012 97.6865 5.52246 97.7861 4.8252 97.7861H3.43652V96.8018ZM3.43652 98.1377V97.1621H4.8252C5.63965 97.1621 6.31348 97.2588 6.84668 97.4521C7.37988 97.6455 7.79883 97.9033 8.10352 98.2256C8.41406 98.5479 8.63086 98.9023 8.75391 99.2891C8.88281 99.6699 8.94727 100.051 8.94727 100.432C8.94727 101.029 8.84473 101.56 8.63965 102.022C8.44043 102.485 8.15625 102.878 7.78711 103.2C7.42383 103.522 6.99609 103.766 6.50391 103.93C6.01172 104.094 5.47559 104.176 4.89551 104.176C4.33887 104.176 3.81445 104.097 3.32227 103.938C2.83594 103.78 2.40527 103.552 2.03027 103.253C1.65527 102.948 1.3623 102.576 1.15137 102.137C0.94043 101.691 0.834961 101.185 0.834961 100.616H2.46094C2.46094 101.062 2.55762 101.451 2.75098 101.785C2.9502 102.119 3.23145 102.38 3.59473 102.567C3.96387 102.749 4.39746 102.84 4.89551 102.84C5.39355 102.84 5.82129 102.755 6.17871 102.585C6.54199 102.409 6.82031 102.146 7.01367 101.794C7.21289 101.442 7.3125 101 7.3125 100.467C7.3125 99.9336 7.20117 99.4971 6.97852 99.1572C6.75586 98.8115 6.43945 98.5566 6.0293 98.3926C5.625 98.2227 5.14746 98.1377 4.59668 98.1377H3.43652ZM18.8617 96.582V98.5332C18.8617 99.582 18.7679 100.467 18.5804 101.188C18.3929 101.908 18.1234 102.488 17.7718 102.928C17.4203 103.367 16.9955 103.687 16.4974 103.886C16.0052 104.079 15.4486 104.176 14.8275 104.176C14.3353 104.176 13.8812 104.114 13.4652 103.991C13.0492 103.868 12.6742 103.672 12.3402 103.402C12.0121 103.127 11.7308 102.77 11.4964 102.33C11.2621 101.891 11.0834 101.357 10.9603 100.73C10.8373 100.104 10.7757 99.3711 10.7757 98.5332V96.582C10.7757 95.5332 10.8695 94.6543 11.057 93.9453C11.2504 93.2363 11.5228 92.668 11.8744 92.2402C12.2259 91.8066 12.6478 91.4961 13.14 91.3086C13.638 91.1211 14.1947 91.0273 14.8099 91.0273C15.308 91.0273 15.765 91.0889 16.181 91.2119C16.6029 91.3291 16.9779 91.5195 17.306 91.7832C17.6341 92.041 17.9125 92.3867 18.141 92.8203C18.3754 93.248 18.5541 93.7725 18.6771 94.3936C18.8002 95.0146 18.8617 95.7441 18.8617 96.582ZM17.2269 98.7969V96.3096C17.2269 95.7354 17.1918 95.2314 17.1214 94.7979C17.057 94.3584 16.9603 93.9834 16.8314 93.6729C16.7025 93.3623 16.5384 93.1104 16.3392 92.917C16.1459 92.7236 15.9203 92.583 15.6625 92.4951C15.4105 92.4014 15.1263 92.3545 14.8099 92.3545C14.4232 92.3545 14.0804 92.4277 13.7816 92.5742C13.4828 92.7148 13.2308 92.9404 13.0257 93.251C12.8265 93.5615 12.6742 93.9688 12.5687 94.4727C12.4632 94.9766 12.4105 95.5889 12.4105 96.3096V98.7969C12.4105 99.3711 12.4427 99.8779 12.5072 100.317C12.5775 100.757 12.68 101.138 12.8148 101.46C12.9496 101.776 13.1136 102.037 13.307 102.242C13.5004 102.447 13.723 102.6 13.975 102.699C14.2328 102.793 14.517 102.84 14.8275 102.84C15.2259 102.84 15.5746 102.764 15.8734 102.611C16.1722 102.459 16.4213 102.222 16.6205 101.899C16.8255 101.571 16.9779 101.152 17.0775 100.643C17.1771 100.127 17.2269 99.5117 17.2269 98.7969ZM28.6798 102.84C29.0665 102.84 29.4239 102.761 29.752 102.603C30.0802 102.444 30.3497 102.228 30.5606 101.952C30.7716 101.671 30.8917 101.352 30.921 100.994H32.4679C32.4386 101.557 32.2481 102.081 31.8966 102.567C31.5509 103.048 31.0968 103.438 30.5343 103.736C29.9718 104.029 29.3536 104.176 28.6798 104.176C27.9649 104.176 27.3409 104.05 26.8077 103.798C26.2804 103.546 25.8409 103.2 25.4893 102.761C25.1436 102.321 24.8829 101.817 24.7071 101.249C24.5372 100.675 24.4522 100.068 24.4522 99.4297V99.0605C24.4522 98.4219 24.5372 97.8184 24.7071 97.25C24.8829 96.6758 25.1436 96.1689 25.4893 95.7295C25.8409 95.29 26.2804 94.9443 26.8077 94.6924C27.3409 94.4404 27.9649 94.3145 28.6798 94.3145C29.4239 94.3145 30.0743 94.4668 30.6309 94.7715C31.1876 95.0703 31.6241 95.4805 31.9405 96.002C32.2628 96.5176 32.4386 97.1035 32.4679 97.7598H30.921C30.8917 97.3672 30.7804 97.0127 30.587 96.6963C30.3995 96.3799 30.1417 96.1279 29.8136 95.9404C29.4913 95.7471 29.1134 95.6504 28.6798 95.6504C28.1817 95.6504 27.7628 95.75 27.4229 95.9492C27.0889 96.1426 26.8223 96.4062 26.6231 96.7402C26.4298 97.0684 26.2891 97.4346 26.2013 97.8389C26.1192 98.2373 26.0782 98.6445 26.0782 99.0605V99.4297C26.0782 99.8457 26.1192 100.256 26.2013 100.66C26.2833 101.064 26.421 101.431 26.6143 101.759C26.8136 102.087 27.0802 102.351 27.4141 102.55C27.754 102.743 28.1759 102.84 28.6798 102.84ZM35.7026 90.5V104H34.0678V90.5H35.7026ZM39.7195 94.4902V104H38.0848V94.4902H39.7195ZM37.9617 91.9678C37.9617 91.7041 38.0408 91.4814 38.199 91.2998C38.3631 91.1182 38.6033 91.0273 38.9197 91.0273C39.2303 91.0273 39.4676 91.1182 39.6316 91.2998C39.8016 91.4814 39.8865 91.7041 39.8865 91.9678C39.8865 92.2197 39.8016 92.4365 39.6316 92.6182C39.4676 92.7939 39.2303 92.8818 38.9197 92.8818C38.6033 92.8818 38.3631 92.7939 38.199 92.6182C38.0408 92.4365 37.9617 92.2197 37.9617 91.9678ZM45.9162 104.176C45.2541 104.176 44.6535 104.064 44.1144 103.842C43.5812 103.613 43.1213 103.294 42.7345 102.884C42.3537 102.474 42.0607 101.987 41.8556 101.425C41.6505 100.862 41.548 100.247 41.548 99.5791V99.21C41.548 98.4365 41.6623 97.748 41.8908 97.1445C42.1193 96.5352 42.4298 96.0195 42.8224 95.5977C43.215 95.1758 43.6603 94.8564 44.1584 94.6396C44.6564 94.4229 45.172 94.3145 45.7052 94.3145C46.3849 94.3145 46.9709 94.4316 47.463 94.666C47.9611 94.9004 48.3683 95.2285 48.6847 95.6504C49.0011 96.0664 49.2355 96.5586 49.3879 97.127C49.5402 97.6895 49.6164 98.3047 49.6164 98.9727V99.7021H42.5148V98.375H47.9904V98.252C47.967 97.8301 47.8791 97.4199 47.7267 97.0215C47.5802 96.623 47.3459 96.2949 47.0236 96.0371C46.7013 95.7793 46.2619 95.6504 45.7052 95.6504C45.3361 95.6504 44.9963 95.7295 44.6857 95.8877C44.3752 96.04 44.1086 96.2686 43.8859 96.5732C43.6632 96.8779 43.4904 97.25 43.3673 97.6895C43.2443 98.1289 43.1828 98.6357 43.1828 99.21V99.5791C43.1828 100.03 43.2443 100.455 43.3673 100.854C43.4963 101.246 43.6808 101.592 43.9211 101.891C44.1671 102.189 44.463 102.424 44.8088 102.594C45.1603 102.764 45.5588 102.849 46.0041 102.849C46.5783 102.849 47.0646 102.731 47.463 102.497C47.8615 102.263 48.2101 101.949 48.5089 101.557L49.4933 102.339C49.2882 102.649 49.0275 102.945 48.7111 103.227C48.3947 103.508 48.005 103.736 47.5421 103.912C47.0851 104.088 46.5431 104.176 45.9162 104.176ZM52.7808 96.5205V104H51.1548V94.4902H52.6929L52.7808 96.5205ZM52.3941 98.8848L51.7173 98.8584C51.7232 98.208 51.8198 97.6074 52.0073 97.0566C52.1948 96.5 52.4585 96.0166 52.7984 95.6064C53.1382 95.1963 53.5425 94.8799 54.0112 94.6572C54.4859 94.4287 55.0103 94.3145 55.5845 94.3145C56.0532 94.3145 56.4751 94.3789 56.8501 94.5078C57.2251 94.6309 57.5445 94.8301 57.8081 95.1055C58.0777 95.3809 58.2827 95.7383 58.4234 96.1777C58.564 96.6113 58.6343 97.1416 58.6343 97.7686V104H56.9995V97.751C56.9995 97.2529 56.9263 96.8545 56.7798 96.5557C56.6333 96.251 56.4195 96.0312 56.1382 95.8965C55.857 95.7559 55.5112 95.6855 55.1011 95.6855C54.6968 95.6855 54.3277 95.7705 53.9937 95.9404C53.6655 96.1104 53.3814 96.3447 53.1411 96.6436C52.9068 96.9424 52.7222 97.2852 52.5874 97.6719C52.4585 98.0527 52.3941 98.457 52.3941 98.8848ZM64.7255 94.4902V95.7383H59.5839V94.4902H64.7255ZM61.3241 92.1787H62.9501V101.645C62.9501 101.967 62.9999 102.21 63.0995 102.374C63.1991 102.538 63.328 102.646 63.4862 102.699C63.6444 102.752 63.8143 102.778 63.996 102.778C64.1307 102.778 64.2714 102.767 64.4179 102.743C64.5702 102.714 64.6845 102.69 64.7606 102.673L64.7694 104C64.6405 104.041 64.4706 104.079 64.2596 104.114C64.0546 104.155 63.8055 104.176 63.5126 104.176C63.1141 104.176 62.7479 104.097 62.4139 103.938C62.08 103.78 61.8134 103.517 61.6141 103.147C61.4208 102.772 61.3241 102.269 61.3241 101.636V92.1787ZM71.8098 101.478C71.8098 101.243 71.7571 101.026 71.6516 100.827C71.552 100.622 71.344 100.438 71.0276 100.273C70.717 100.104 70.2483 99.957 69.6213 99.834C69.094 99.7227 68.6164 99.5908 68.1887 99.4385C67.7668 99.2861 67.4065 99.1016 67.1077 98.8848C66.8147 98.668 66.5891 98.4131 66.4309 98.1201C66.2727 97.8271 66.1936 97.4844 66.1936 97.0918C66.1936 96.7168 66.2756 96.3623 66.4397 96.0283C66.6096 95.6943 66.8469 95.3984 67.1516 95.1406C67.4622 94.8828 67.8342 94.6807 68.2678 94.5342C68.7014 94.3877 69.1848 94.3145 69.718 94.3145C70.4797 94.3145 71.1301 94.4492 71.6692 94.7188C72.2082 94.9883 72.6213 95.3486 72.9084 95.7998C73.1955 96.2451 73.3391 96.7402 73.3391 97.2852H71.7131C71.7131 97.0215 71.634 96.7666 71.4758 96.5205C71.3235 96.2686 71.0979 96.0605 70.7991 95.8965C70.5061 95.7324 70.1457 95.6504 69.718 95.6504C69.2668 95.6504 68.9006 95.7207 68.6194 95.8613C68.344 95.9961 68.1418 96.1689 68.0129 96.3799C67.8899 96.5908 67.8284 96.8135 67.8284 97.0479C67.8284 97.2236 67.8577 97.3818 67.9163 97.5225C67.9807 97.6572 68.092 97.7832 68.2502 97.9004C68.4084 98.0117 68.6311 98.1172 68.9182 98.2168C69.2053 98.3164 69.5715 98.416 70.0168 98.5156C70.7961 98.6914 71.4377 98.9023 71.9416 99.1484C72.4455 99.3945 72.8205 99.6963 73.0666 100.054C73.3127 100.411 73.4358 100.845 73.4358 101.354C73.4358 101.771 73.3479 102.151 73.1721 102.497C73.0022 102.843 72.7532 103.142 72.425 103.394C72.1028 103.64 71.7161 103.833 71.2649 103.974C70.8196 104.108 70.3186 104.176 69.762 104.176C68.9241 104.176 68.2151 104.026 67.635 103.728C67.0549 103.429 66.6155 103.042 66.3166 102.567C66.0178 102.093 65.8684 101.592 65.8684 101.064H67.5032C67.5266 101.51 67.6555 101.864 67.8899 102.128C68.1243 102.386 68.4114 102.57 68.7512 102.682C69.0911 102.787 69.428 102.84 69.762 102.84C70.2073 102.84 70.5793 102.781 70.8782 102.664C71.1829 102.547 71.4143 102.386 71.5725 102.181C71.7307 101.976 71.8098 101.741 71.8098 101.478Z" fill="#366CB1"/>
<path d="M9.71191 58.6934V60.0293H0.46582V59.0713L6.19629 50.2031H7.52344L6.09961 52.7695L2.31152 58.6934H9.71191ZM7.92773 50.2031V63H6.30176V50.2031H7.92773ZM18.8617 55.582V57.5332C18.8617 58.582 18.7679 59.4668 18.5804 60.1875C18.3929 60.9082 18.1234 61.4883 17.7718 61.9277C17.4203 62.3672 16.9955 62.6865 16.4974 62.8857C16.0052 63.0791 15.4486 63.1758 14.8275 63.1758C14.3353 63.1758 13.8812 63.1143 13.4652 62.9912C13.0492 62.8682 12.6742 62.6719 12.3402 62.4023C12.0121 62.127 11.7308 61.7695 11.4964 61.3301C11.2621 60.8906 11.0834 60.3574 10.9603 59.7305C10.8373 59.1035 10.7757 58.3711 10.7757 57.5332V55.582C10.7757 54.5332 10.8695 53.6543 11.057 52.9453C11.2504 52.2363 11.5228 51.668 11.8744 51.2402C12.2259 50.8066 12.6478 50.4961 13.14 50.3086C13.638 50.1211 14.1947 50.0273 14.8099 50.0273C15.308 50.0273 15.765 50.0889 16.181 50.2119C16.6029 50.3291 16.9779 50.5195 17.306 50.7832C17.6341 51.041 17.9125 51.3867 18.141 51.8203C18.3754 52.248 18.5541 52.7725 18.6771 53.3936C18.8002 54.0146 18.8617 54.7441 18.8617 55.582ZM17.2269 57.7969V55.3096C17.2269 54.7354 17.1918 54.2314 17.1214 53.7979C17.057 53.3584 16.9603 52.9834 16.8314 52.6729C16.7025 52.3623 16.5384 52.1104 16.3392 51.917C16.1459 51.7236 15.9203 51.583 15.6625 51.4951C15.4105 51.4014 15.1263 51.3545 14.8099 51.3545C14.4232 51.3545 14.0804 51.4277 13.7816 51.5742C13.4828 51.7148 13.2308 51.9404 13.0257 52.251C12.8265 52.5615 12.6742 52.9688 12.5687 53.4727C12.4632 53.9766 12.4105 54.5889 12.4105 55.3096V57.7969C12.4105 58.3711 12.4427 58.8779 12.5072 59.3174C12.5775 59.7568 12.68 60.1377 12.8148 60.46C12.9496 60.7764 13.1136 61.0371 13.307 61.2422C13.5004 61.4473 13.723 61.5996 13.975 61.6992C14.2328 61.793 14.517 61.8398 14.8275 61.8398C15.2259 61.8398 15.5746 61.7637 15.8734 61.6113C16.1722 61.459 16.4213 61.2217 16.6205 60.8994C16.8255 60.5713 16.9779 60.1523 17.0775 59.6426C17.1771 59.127 17.2269 58.5117 17.2269 57.7969ZM28.6798 61.8398C29.0665 61.8398 29.4239 61.7607 29.752 61.6025C30.0802 61.4443 30.3497 61.2275 30.5606 60.9521C30.7716 60.6709 30.8917 60.3516 30.921 59.9941H32.4679C32.4386 60.5566 32.2481 61.0811 31.8966 61.5674C31.5509 62.0479 31.0968 62.4375 30.5343 62.7363C29.9718 63.0293 29.3536 63.1758 28.6798 63.1758C27.9649 63.1758 27.3409 63.0498 26.8077 62.7979C26.2804 62.5459 25.8409 62.2002 25.4893 61.7607C25.1436 61.3213 24.8829 60.8174 24.7071 60.249C24.5372 59.6748 24.4522 59.0684 24.4522 58.4297V58.0605C24.4522 57.4219 24.5372 56.8184 24.7071 56.25C24.8829 55.6758 25.1436 55.1689 25.4893 54.7295C25.8409 54.29 26.2804 53.9443 26.8077 53.6924C27.3409 53.4404 27.9649 53.3145 28.6798 53.3145C29.4239 53.3145 30.0743 53.4668 30.6309 53.7715C31.1876 54.0703 31.6241 54.4805 31.9405 55.002C32.2628 55.5176 32.4386 56.1035 32.4679 56.7598H30.921C30.8917 56.3672 30.7804 56.0127 30.587 55.6963C30.3995 55.3799 30.1417 55.1279 29.8136 54.9404C29.4913 54.7471 29.1134 54.6504 28.6798 54.6504C28.1817 54.6504 27.7628 54.75 27.4229 54.9492C27.0889 55.1426 26.8223 55.4062 26.6231 55.7402C26.4298 56.0684 26.2891 56.4346 26.2013 56.8389C26.1192 57.2373 26.0782 57.6445 26.0782 58.0605V58.4297C26.0782 58.8457 26.1192 59.2559 26.2013 59.6602C26.2833 60.0645 26.421 60.4307 26.6143 60.7588C26.8136 61.0869 27.0802 61.3506 27.4141 61.5498C27.754 61.7432 28.1759 61.8398 28.6798 61.8398ZM35.7026 49.5V63H34.0678V49.5H35.7026ZM39.7195 53.4902V63H38.0848V53.4902H39.7195ZM37.9617 50.9678C37.9617 50.7041 38.0408 50.4814 38.199 50.2998C38.3631 50.1182 38.6033 50.0273 38.9197 50.0273C39.2303 50.0273 39.4676 50.1182 39.6316 50.2998C39.8016 50.4814 39.8865 50.7041 39.8865 50.9678C39.8865 51.2197 39.8016 51.4365 39.6316 51.6182C39.4676 51.7939 39.2303 51.8818 38.9197 51.8818C38.6033 51.8818 38.3631 51.7939 38.199 51.6182C38.0408 51.4365 37.9617 51.2197 37.9617 50.9678ZM45.9162 63.1758C45.2541 63.1758 44.6535 63.0645 44.1144 62.8418C43.5812 62.6133 43.1213 62.2939 42.7345 61.8838C42.3537 61.4736 42.0607 60.9873 41.8556 60.4248C41.6505 59.8623 41.548 59.2471 41.548 58.5791V58.21C41.548 57.4365 41.6623 56.748 41.8908 56.1445C42.1193 55.5352 42.4298 55.0195 42.8224 54.5977C43.215 54.1758 43.6603 53.8564 44.1584 53.6396C44.6564 53.4229 45.172 53.3145 45.7052 53.3145C46.3849 53.3145 46.9709 53.4316 47.463 53.666C47.9611 53.9004 48.3683 54.2285 48.6847 54.6504C49.0011 55.0664 49.2355 55.5586 49.3879 56.127C49.5402 56.6895 49.6164 57.3047 49.6164 57.9727V58.7021H42.5148V57.375H47.9904V57.252C47.967 56.8301 47.8791 56.4199 47.7267 56.0215C47.5802 55.623 47.3459 55.2949 47.0236 55.0371C46.7013 54.7793 46.2619 54.6504 45.7052 54.6504C45.3361 54.6504 44.9963 54.7295 44.6857 54.8877C44.3752 55.04 44.1086 55.2686 43.8859 55.5732C43.6632 55.8779 43.4904 56.25 43.3673 56.6895C43.2443 57.1289 43.1828 57.6357 43.1828 58.21V58.5791C43.1828 59.0303 43.2443 59.4551 43.3673 59.8535C43.4963 60.2461 43.6808 60.5918 43.9211 60.8906C44.1671 61.1895 44.463 61.4238 44.8088 61.5938C45.1603 61.7637 45.5588 61.8486 46.0041 61.8486C46.5783 61.8486 47.0646 61.7314 47.463 61.4971C47.8615 61.2627 48.2101 60.9492 48.5089 60.5566L49.4933 61.3389C49.2882 61.6494 49.0275 61.9453 48.7111 62.2266C48.3947 62.5078 48.005 62.7363 47.5421 62.9121C47.0851 63.0879 46.5431 63.1758 45.9162 63.1758ZM52.7808 55.5205V63H51.1548V53.4902H52.6929L52.7808 55.5205ZM52.3941 57.8848L51.7173 57.8584C51.7232 57.208 51.8198 56.6074 52.0073 56.0566C52.1948 55.5 52.4585 55.0166 52.7984 54.6064C53.1382 54.1963 53.5425 53.8799 54.0112 53.6572C54.4859 53.4287 55.0103 53.3145 55.5845 53.3145C56.0532 53.3145 56.4751 53.3789 56.8501 53.5078C57.2251 53.6309 57.5445 53.8301 57.8081 54.1055C58.0777 54.3809 58.2827 54.7383 58.4234 55.1777C58.564 55.6113 58.6343 56.1416 58.6343 56.7686V63H56.9995V56.751C56.9995 56.2529 56.9263 55.8545 56.7798 55.5557C56.6333 55.251 56.4195 55.0312 56.1382 54.8965C55.857 54.7559 55.5112 54.6855 55.1011 54.6855C54.6968 54.6855 54.3277 54.7705 53.9937 54.9404C53.6655 55.1104 53.3814 55.3447 53.1411 55.6436C52.9068 55.9424 52.7222 56.2852 52.5874 56.6719C52.4585 57.0527 52.3941 57.457 52.3941 57.8848ZM64.7255 53.4902V54.7383H59.5839V53.4902H64.7255ZM61.3241 51.1787H62.9501V60.6445C62.9501 60.9668 62.9999 61.21 63.0995 61.374C63.1991 61.5381 63.328 61.6465 63.4862 61.6992C63.6444 61.752 63.8143 61.7783 63.996 61.7783C64.1307 61.7783 64.2714 61.7666 64.4179 61.7432C64.5702 61.7139 64.6845 61.6904 64.7606 61.6729L64.7694 63C64.6405 63.041 64.4706 63.0791 64.2596 63.1143C64.0546 63.1553 63.8055 63.1758 63.5126 63.1758C63.1141 63.1758 62.7479 63.0967 62.4139 62.9385C62.08 62.7803 61.8134 62.5166 61.6141 62.1475C61.4208 61.7725 61.3241 61.2686 61.3241 60.6357V51.1787ZM71.8098 60.4775C71.8098 60.2432 71.7571 60.0264 71.6516 59.8271C71.552 59.6221 71.344 59.4375 71.0276 59.2734C70.717 59.1035 70.2483 58.957 69.6213 58.834C69.094 58.7227 68.6164 58.5908 68.1887 58.4385C67.7668 58.2861 67.4065 58.1016 67.1077 57.8848C66.8147 57.668 66.5891 57.4131 66.4309 57.1201C66.2727 56.8271 66.1936 56.4844 66.1936 56.0918C66.1936 55.7168 66.2756 55.3623 66.4397 55.0283C66.6096 54.6943 66.8469 54.3984 67.1516 54.1406C67.4622 53.8828 67.8342 53.6807 68.2678 53.5342C68.7014 53.3877 69.1848 53.3145 69.718 53.3145C70.4797 53.3145 71.1301 53.4492 71.6692 53.7188C72.2082 53.9883 72.6213 54.3486 72.9084 54.7998C73.1955 55.2451 73.3391 55.7402 73.3391 56.2852H71.7131C71.7131 56.0215 71.634 55.7666 71.4758 55.5205C71.3235 55.2686 71.0979 55.0605 70.7991 54.8965C70.5061 54.7324 70.1457 54.6504 69.718 54.6504C69.2668 54.6504 68.9006 54.7207 68.6194 54.8613C68.344 54.9961 68.1418 55.1689 68.0129 55.3799C67.8899 55.5908 67.8284 55.8135 67.8284 56.0479C67.8284 56.2236 67.8577 56.3818 67.9163 56.5225C67.9807 56.6572 68.092 56.7832 68.2502 56.9004C68.4084 57.0117 68.6311 57.1172 68.9182 57.2168C69.2053 57.3164 69.5715 57.416 70.0168 57.5156C70.7961 57.6914 71.4377 57.9023 71.9416 58.1484C72.4455 58.3945 72.8205 58.6963 73.0666 59.0537C73.3127 59.4111 73.4358 59.8447 73.4358 60.3545C73.4358 60.7705 73.3479 61.1514 73.1721 61.4971C73.0022 61.8428 72.7532 62.1416 72.425 62.3936C72.1028 62.6396 71.7161 62.833 71.2649 62.9736C70.8196 63.1084 70.3186 63.1758 69.762 63.1758C68.9241 63.1758 68.2151 63.0264 67.635 62.7275C67.0549 62.4287 66.6155 62.042 66.3166 61.5674C66.0178 61.0928 65.8684 60.5918 65.8684 60.0645H67.5032C67.5266 60.5098 67.6555 60.8643 67.8899 61.1279C68.1243 61.3857 68.4114 61.5703 68.7512 61.6816C69.0911 61.7871 69.428 61.8398 69.762 61.8398C70.2073 61.8398 70.5793 61.7812 70.8782 61.6641C71.1829 61.5469 71.4143 61.3857 71.5725 61.1807C71.7307 60.9756 71.8098 60.7412 71.8098 60.4775Z" fill="#366CB1"/>
<path d="M3.12012 15.9092L1.81934 15.5752L2.46094 9.20312H9.02637V10.7061H3.84082L3.4541 14.1865C3.68848 14.0518 3.98438 13.9258 4.3418 13.8086C4.70508 13.6914 5.12109 13.6328 5.58984 13.6328C6.18164 13.6328 6.71191 13.7354 7.18066 13.9404C7.64941 14.1396 8.04785 14.4268 8.37598 14.8018C8.70996 15.1768 8.96484 15.6279 9.14062 16.1553C9.31641 16.6826 9.4043 17.2715 9.4043 17.9219C9.4043 18.5371 9.31934 19.1025 9.14941 19.6182C8.98535 20.1338 8.73633 20.585 8.40234 20.9717C8.06836 21.3525 7.64648 21.6484 7.13672 21.8594C6.63281 22.0703 6.03809 22.1758 5.35254 22.1758C4.83691 22.1758 4.34766 22.1055 3.88477 21.9648C3.42773 21.8184 3.01758 21.5986 2.6543 21.3057C2.29688 21.0068 2.00391 20.6377 1.77539 20.1982C1.55273 19.7529 1.41211 19.2314 1.35352 18.6338H2.90039C2.9707 19.1143 3.11133 19.5186 3.32227 19.8467C3.5332 20.1748 3.80859 20.4238 4.14844 20.5938C4.49414 20.7578 4.89551 20.8398 5.35254 20.8398C5.73926 20.8398 6.08203 20.7725 6.38086 20.6377C6.67969 20.5029 6.93164 20.3096 7.13672 20.0576C7.3418 19.8057 7.49707 19.501 7.60254 19.1436C7.71387 18.7861 7.76953 18.3848 7.76953 17.9395C7.76953 17.5352 7.71387 17.1602 7.60254 16.8145C7.49121 16.4688 7.32422 16.167 7.10156 15.9092C6.88477 15.6514 6.61816 15.4521 6.30176 15.3115C5.98535 15.165 5.62207 15.0918 5.21191 15.0918C4.66699 15.0918 4.25391 15.165 3.97266 15.3115C3.69727 15.458 3.41309 15.6572 3.12012 15.9092ZM18.8617 14.582V16.5332C18.8617 17.582 18.7679 18.4668 18.5804 19.1875C18.3929 19.9082 18.1234 20.4883 17.7718 20.9277C17.4203 21.3672 16.9955 21.6865 16.4974 21.8857C16.0052 22.0791 15.4486 22.1758 14.8275 22.1758C14.3353 22.1758 13.8812 22.1143 13.4652 21.9912C13.0492 21.8682 12.6742 21.6719 12.3402 21.4023C12.0121 21.127 11.7308 20.7695 11.4964 20.3301C11.2621 19.8906 11.0834 19.3574 10.9603 18.7305C10.8373 18.1035 10.7757 17.3711 10.7757 16.5332V14.582C10.7757 13.5332 10.8695 12.6543 11.057 11.9453C11.2504 11.2363 11.5228 10.668 11.8744 10.2402C12.2259 9.80664 12.6478 9.49609 13.14 9.30859C13.638 9.12109 14.1947 9.02734 14.8099 9.02734C15.308 9.02734 15.765 9.08887 16.181 9.21191C16.6029 9.3291 16.9779 9.51953 17.306 9.7832C17.6341 10.041 17.9125 10.3867 18.141 10.8203C18.3754 11.248 18.5541 11.7725 18.6771 12.3936C18.8002 13.0146 18.8617 13.7441 18.8617 14.582ZM17.2269 16.7969V14.3096C17.2269 13.7354 17.1918 13.2314 17.1214 12.7979C17.057 12.3584 16.9603 11.9834 16.8314 11.6729C16.7025 11.3623 16.5384 11.1104 16.3392 10.917C16.1459 10.7236 15.9203 10.583 15.6625 10.4951C15.4105 10.4014 15.1263 10.3545 14.8099 10.3545C14.4232 10.3545 14.0804 10.4277 13.7816 10.5742C13.4828 10.7148 13.2308 10.9404 13.0257 11.251C12.8265 11.5615 12.6742 11.9688 12.5687 12.4727C12.4632 12.9766 12.4105 13.5889 12.4105 14.3096V16.7969C12.4105 17.3711 12.4427 17.8779 12.5072 18.3174C12.5775 18.7568 12.68 19.1377 12.8148 19.46C12.9496 19.7764 13.1136 20.0371 13.307 20.2422C13.5004 20.4473 13.723 20.5996 13.975 20.6992C14.2328 20.793 14.517 20.8398 14.8275 20.8398C15.2259 20.8398 15.5746 20.7637 15.8734 20.6113C16.1722 20.459 16.4213 20.2217 16.6205 19.8994C16.8255 19.5713 16.9779 19.1523 17.0775 18.6426C17.1771 18.127 17.2269 17.5117 17.2269 16.7969ZM28.6798 20.8398C29.0665 20.8398 29.4239 20.7607 29.752 20.6025C30.0802 20.4443 30.3497 20.2275 30.5606 19.9521C30.7716 19.6709 30.8917 19.3516 30.921 18.9941H32.4679C32.4386 19.5566 32.2481 20.0811 31.8966 20.5674C31.5509 21.0479 31.0968 21.4375 30.5343 21.7363C29.9718 22.0293 29.3536 22.1758 28.6798 22.1758C27.9649 22.1758 27.3409 22.0498 26.8077 21.7979C26.2804 21.5459 25.8409 21.2002 25.4893 20.7607C25.1436 20.3213 24.8829 19.8174 24.7071 19.249C24.5372 18.6748 24.4522 18.0684 24.4522 17.4297V17.0605C24.4522 16.4219 24.5372 15.8184 24.7071 15.25C24.8829 14.6758 25.1436 14.1689 25.4893 13.7295C25.8409 13.29 26.2804 12.9443 26.8077 12.6924C27.3409 12.4404 27.9649 12.3145 28.6798 12.3145C29.4239 12.3145 30.0743 12.4668 30.6309 12.7715C31.1876 13.0703 31.6241 13.4805 31.9405 14.002C32.2628 14.5176 32.4386 15.1035 32.4679 15.7598H30.921C30.8917 15.3672 30.7804 15.0127 30.587 14.6963C30.3995 14.3799 30.1417 14.1279 29.8136 13.9404C29.4913 13.7471 29.1134 13.6504 28.6798 13.6504C28.1817 13.6504 27.7628 13.75 27.4229 13.9492C27.0889 14.1426 26.8223 14.4062 26.6231 14.7402C26.4298 15.0684 26.2891 15.4346 26.2013 15.8389C26.1192 16.2373 26.0782 16.6445 26.0782 17.0605V17.4297C26.0782 17.8457 26.1192 18.2559 26.2013 18.6602C26.2833 19.0645 26.421 19.4307 26.6143 19.7588C26.8136 20.0869 27.0802 20.3506 27.4141 20.5498C27.754 20.7432 28.1759 20.8398 28.6798 20.8398ZM35.7026 8.5V22H34.0678V8.5H35.7026ZM39.7195 12.4902V22H38.0848V12.4902H39.7195ZM37.9617 9.96777C37.9617 9.7041 38.0408 9.48145 38.199 9.2998C38.3631 9.11816 38.6033 9.02734 38.9197 9.02734C39.2303 9.02734 39.4676 9.11816 39.6316 9.2998C39.8016 9.48145 39.8865 9.7041 39.8865 9.96777C39.8865 10.2197 39.8016 10.4365 39.6316 10.6182C39.4676 10.7939 39.2303 10.8818 38.9197 10.8818C38.6033 10.8818 38.3631 10.7939 38.199 10.6182C38.0408 10.4365 37.9617 10.2197 37.9617 9.96777ZM45.9162 22.1758C45.2541 22.1758 44.6535 22.0645 44.1144 21.8418C43.5812 21.6133 43.1213 21.2939 42.7345 20.8838C42.3537 20.4736 42.0607 19.9873 41.8556 19.4248C41.6505 18.8623 41.548 18.2471 41.548 17.5791V17.21C41.548 16.4365 41.6623 15.748 41.8908 15.1445C42.1193 14.5352 42.4298 14.0195 42.8224 13.5977C43.215 13.1758 43.6603 12.8564 44.1584 12.6396C44.6564 12.4229 45.172 12.3145 45.7052 12.3145C46.3849 12.3145 46.9709 12.4316 47.463 12.666C47.9611 12.9004 48.3683 13.2285 48.6847 13.6504C49.0011 14.0664 49.2355 14.5586 49.3879 15.127C49.5402 15.6895 49.6164 16.3047 49.6164 16.9727V17.7021H42.5148V16.375H47.9904V16.252C47.967 15.8301 47.8791 15.4199 47.7267 15.0215C47.5802 14.623 47.3459 14.2949 47.0236 14.0371C46.7013 13.7793 46.2619 13.6504 45.7052 13.6504C45.3361 13.6504 44.9963 13.7295 44.6857 13.8877C44.3752 14.04 44.1086 14.2686 43.8859 14.5732C43.6632 14.8779 43.4904 15.25 43.3673 15.6895C43.2443 16.1289 43.1828 16.6357 43.1828 17.21V17.5791C43.1828 18.0303 43.2443 18.4551 43.3673 18.8535C43.4963 19.2461 43.6808 19.5918 43.9211 19.8906C44.1671 20.1895 44.463 20.4238 44.8088 20.5938C45.1603 20.7637 45.5588 20.8486 46.0041 20.8486C46.5783 20.8486 47.0646 20.7314 47.463 20.4971C47.8615 20.2627 48.2101 19.9492 48.5089 19.5566L49.4933 20.3389C49.2882 20.6494 49.0275 20.9453 48.7111 21.2266C48.3947 21.5078 48.005 21.7363 47.5421 21.9121C47.0851 22.0879 46.5431 22.1758 45.9162 22.1758ZM52.7808 14.5205V22H51.1548V12.4902H52.6929L52.7808 14.5205ZM52.3941 16.8848L51.7173 16.8584C51.7232 16.208 51.8198 15.6074 52.0073 15.0566C52.1948 14.5 52.4585 14.0166 52.7984 13.6064C53.1382 13.1963 53.5425 12.8799 54.0112 12.6572C54.4859 12.4287 55.0103 12.3145 55.5845 12.3145C56.0532 12.3145 56.4751 12.3789 56.8501 12.5078C57.2251 12.6309 57.5445 12.8301 57.8081 13.1055C58.0777 13.3809 58.2827 13.7383 58.4234 14.1777C58.564 14.6113 58.6343 15.1416 58.6343 15.7686V22H56.9995V15.751C56.9995 15.2529 56.9263 14.8545 56.7798 14.5557C56.6333 14.251 56.4195 14.0312 56.1382 13.8965C55.857 13.7559 55.5112 13.6855 55.1011 13.6855C54.6968 13.6855 54.3277 13.7705 53.9937 13.9404C53.6655 14.1104 53.3814 14.3447 53.1411 14.6436C52.9068 14.9424 52.7222 15.2852 52.5874 15.6719C52.4585 16.0527 52.3941 16.457 52.3941 16.8848ZM64.7255 12.4902V13.7383H59.5839V12.4902H64.7255ZM61.3241 10.1787H62.9501V19.6445C62.9501 19.9668 62.9999 20.21 63.0995 20.374C63.1991 20.5381 63.328 20.6465 63.4862 20.6992C63.6444 20.752 63.8143 20.7783 63.996 20.7783C64.1307 20.7783 64.2714 20.7666 64.4179 20.7432C64.5702 20.7139 64.6845 20.6904 64.7606 20.6729L64.7694 22C64.6405 22.041 64.4706 22.0791 64.2596 22.1143C64.0546 22.1553 63.8055 22.1758 63.5126 22.1758C63.1141 22.1758 62.7479 22.0967 62.4139 21.9385C62.08 21.7803 61.8134 21.5166 61.6141 21.1475C61.4208 20.7725 61.3241 20.2686 61.3241 19.6357V10.1787ZM71.8098 19.4775C71.8098 19.2432 71.7571 19.0264 71.6516 18.8271C71.552 18.6221 71.344 18.4375 71.0276 18.2734C70.717 18.1035 70.2483 17.957 69.6213 17.834C69.094 17.7227 68.6164 17.5908 68.1887 17.4385C67.7668 17.2861 67.4065 17.1016 67.1077 16.8848C66.8147 16.668 66.5891 16.4131 66.4309 16.1201C66.2727 15.8271 66.1936 15.4844 66.1936 15.0918C66.1936 14.7168 66.2756 14.3623 66.4397 14.0283C66.6096 13.6943 66.8469 13.3984 67.1516 13.1406C67.4622 12.8828 67.8342 12.6807 68.2678 12.5342C68.7014 12.3877 69.1848 12.3145 69.718 12.3145C70.4797 12.3145 71.1301 12.4492 71.6692 12.7188C72.2082 12.9883 72.6213 13.3486 72.9084 13.7998C73.1955 14.2451 73.3391 14.7402 73.3391 15.2852H71.7131C71.7131 15.0215 71.634 14.7666 71.4758 14.5205C71.3235 14.2686 71.0979 14.0605 70.7991 13.8965C70.5061 13.7324 70.1457 13.6504 69.718 13.6504C69.2668 13.6504 68.9006 13.7207 68.6194 13.8613C68.344 13.9961 68.1418 14.1689 68.0129 14.3799C67.8899 14.5908 67.8284 14.8135 67.8284 15.0479C67.8284 15.2236 67.8577 15.3818 67.9163 15.5225C67.9807 15.6572 68.092 15.7832 68.2502 15.9004C68.4084 16.0117 68.6311 16.1172 68.9182 16.2168C69.2053 16.3164 69.5715 16.416 70.0168 16.5156C70.7961 16.6914 71.4377 16.9023 71.9416 17.1484C72.4455 17.3945 72.8205 17.6963 73.0666 18.0537C73.3127 18.4111 73.4358 18.8447 73.4358 19.3545C73.4358 19.7705 73.3479 20.1514 73.1721 20.4971C73.0022 20.8428 72.7532 21.1416 72.425 21.3936C72.1028 21.6396 71.7161 21.833 71.2649 21.9736C70.8196 22.1084 70.3186 22.1758 69.762 22.1758C68.9241 22.1758 68.2151 22.0264 67.635 21.7275C67.0549 21.4287 66.6155 21.042 66.3166 20.5674C66.0178 20.0928 65.8684 19.5918 65.8684 19.0645H67.5032C67.5266 19.5098 67.6555 19.8643 67.8899 20.1279C68.1243 20.3857 68.4114 20.5703 68.7512 20.6816C69.0911 20.7871 69.428 20.8398 69.762 20.8398C70.2073 20.8398 70.5793 20.7812 70.8782 20.6641C71.1829 20.5469 71.4143 20.3857 71.5725 20.1807C71.7307 19.9756 71.8098 19.7412 71.8098 19.4775Z" fill="#366CB1"/>
<path d="M110 0V230" stroke="#D9D9D9" stroke-dasharray="2 2"/>
<path d="M200 0V230" stroke="#D9D9D9" stroke-dasharray="2 2"/>
<path d="M220 0V230" stroke="#D9D9D9" stroke-dasharray="2 2"/>
<path d="M310 0V230" stroke="#D9D9D9" stroke-dasharray="2 2"/>
<path d="M330 0V230" stroke="#D9D9D9" stroke-dasharray="2 2"/>
<path d="M420 0V230" stroke="#D9D9D9" stroke-dasharray="2 2"/>
<path d="M440 0V230" stroke="#D9D9D9" stroke-dasharray="2 2"/>
<path d="M530 0V230" stroke="#D9D9D9" stroke-dasharray="2 2"/>
<path d="M550 0V230" stroke="#D9D9D9" stroke-dasharray="2 2"/>
<path d="M640 0V230" stroke="#D9D9D9" stroke-dasharray="2 2"/>
<path d="M640 190L1.89543e-05 190" stroke="#D9D9D9" stroke-dasharray="2 2"/>
<path d="M640 149L1.89543e-05 149" stroke="#D9D9D9" stroke-dasharray="2 2"/>
<path d="M640 108L1.89543e-05 108" stroke="#D9D9D9" stroke-dasharray="2 2"/>
<path d="M640 67L1.89543e-05 67" stroke="#D9D9D9" stroke-dasharray="2 2"/>
<path d="M640 26L1.89543e-05 26" stroke="#D9D9D9" stroke-dasharray="2 2"/>
</svg>
