<svg width="420" height="136" viewBox="0 0 420 136" fill="none" xmlns="http://www.w3.org/2000/svg">
<circle cx="30.9872" cy="116.799" r="19.0692" fill="#366CB1"/>
<circle cx="211.192" cy="116.799" r="19.0692" fill="#366CB1"/>
<circle cx="382.814" cy="116.799" r="19.0692" fill="#366CB1"/>
<path d="M262.202 98.6833V0H312.259C312.259 0 325.388 6.63507 332.281 12.8717C339.159 19.0946 347.06 31.4642 347.06 31.4642H354.211L363.746 59.5914L415.233 73.4166V103.451H420V120.136H312.259L309.398 129.194H242.656L238.842 120.136H216.913V101.544H102.02L99.6368 106.311H8.10443V129.194H2.38366V109.648H0V0H244.086V98.6833H262.202Z" fill="#366CB1"/>
<rect x="7" y="6.6842" width="229" height="86" fill="white"/>
<rect x="7" y="50" width="102" height="43" fill="#89B4E0"/>
<rect x="7" y="6" width="57" height="87" fill="#FF9100"/>
<path d="M294.328 60.1602V62H285.797V60.1602H294.328ZM286.242 44.9375V62H283.98V44.9375H286.242ZM299.508 44.9375V62H297.282V44.9375H299.508ZM304.993 44.9375V46.7891H291.809V44.9375H304.993ZM317.392 60.1602V62H308.86V60.1602H317.392ZM309.306 44.9375V62H307.044V44.9375H309.306Z" fill="white"/>
</svg>
