<svg width="420" height="137" viewBox="0 0 420 137" fill="none" xmlns="http://www.w3.org/2000/svg">
<circle cx="30.9872" cy="117.115" r="19.0692" fill="#366CB1"/>
<circle cx="211.192" cy="117.115" r="19.0692" fill="#366CB1"/>
<circle cx="382.814" cy="117.115" r="19.0692" fill="#366CB1"/>
<path d="M262.202 98.9992V0.315918H312.259C312.259 0.315918 325.388 6.95099 332.281 13.1877C339.159 19.4105 347.06 31.7802 347.06 31.7802H354.211L363.746 59.9073L415.233 73.7325V103.767H420V120.452H312.259L309.398 129.51H242.656L238.842 120.452H216.913V101.86H102.02L99.6368 106.627H8.10443V129.51H2.38366V109.964H0V0.315918H244.086V98.9992H262.202Z" fill="#366CB1"/>
<rect x="7" y="7.00012" width="229" height="86" fill="#FF9100"/>
<path d="M286.242 44.9376V62.0001H283.98V44.9376H286.242ZM293.391 52.6134V54.465H285.75V52.6134H293.391ZM294.551 44.9376V46.7892H285.75V44.9376H294.551ZM303.305 44.9376V62.0001H301.079V44.9376H303.305ZM308.79 44.9376V46.7892H295.606V44.9376H308.79ZM321.188 60.1603V62.0001H312.657V60.1603H321.188ZM313.103 44.9376V62.0001H310.841V44.9376H313.103Z" fill="white"/>
</svg>
