<svg width="420" height="136" viewBox="0 0 420 136" fill="none" xmlns="http://www.w3.org/2000/svg">
<circle cx="30.9872" cy="116.799" r="19.0692" fill="#366CB1"/>
<circle cx="211.192" cy="116.799" r="19.0692" fill="#366CB1"/>
<circle cx="382.814" cy="116.799" r="19.0692" fill="#366CB1"/>
<path d="M262.202 98.6833V0H312.259C312.259 0 325.388 6.63507 332.281 12.8717C339.159 19.0946 347.06 31.4642 347.06 31.4642H354.211L363.746 59.5914L415.233 73.4166V103.451H420V120.136H312.259L309.398 129.194H242.656L238.842 120.136H216.913V101.544H102.02L99.6368 106.311H8.10443V129.194H2.38366V109.648H0V0H244.086V98.6833H262.202Z" fill="#366CB1"/>
<rect x="7" y="6.6842" width="229" height="86" fill="#89B4E0"/>
<rect x="7" y="6.6842" width="114.5" height="86" fill="#FF9100"/>
<path d="M290.273 55.3086H285.715V53.4688H290.273C291.156 53.4688 291.871 53.3281 292.418 53.0469C292.965 52.7656 293.363 52.375 293.613 51.875C293.871 51.375 294 50.8047 294 50.1641C294 49.5781 293.871 49.0273 293.613 48.5117C293.363 47.9961 292.965 47.582 292.418 47.2695C291.871 46.9492 291.156 46.7891 290.273 46.7891H286.242V62H283.98V44.9375H290.273C291.562 44.9375 292.652 45.1602 293.543 45.6055C294.434 46.0508 295.109 46.668 295.57 47.457C296.031 48.2383 296.262 49.1328 296.262 50.1406C296.262 51.2344 296.031 52.168 295.57 52.9414C295.109 53.7148 294.434 54.3047 293.543 54.7109C292.652 55.1094 291.562 55.3086 290.273 55.3086ZM304.946 44.9375V62H302.719V44.9375H304.946ZM310.43 44.9375V46.7891H297.247V44.9375H310.43ZM322.829 60.1602V62H314.298V60.1602H322.829ZM314.743 44.9375V62H312.481V44.9375H314.743Z" fill="white"/>
</svg>
