<svg width="23" height="22" viewBox="0 0 23 22" fill="none" xmlns="http://www.w3.org/2000/svg">
<path d="M14.0016 8.11782L14.47 7.9427L14.0016 8.11783C14.1422 8.49367 14.4938 8.74911 14.8946 8.76663L22.0305 9.07844L16.4407 13.525C16.1267 13.7748 15.9924 14.1882 16.0996 14.5748L18.0082 21.4578L12.0519 17.5157C11.7173 17.2942 11.2827 17.2942 10.9481 17.5157L11.224 17.9326L10.9481 17.5157L4.9918 21.4578L6.90035 14.5748C7.00757 14.1882 6.87328 13.7748 6.55925 13.525L0.969515 9.07844L8.10535 8.76663C8.50623 8.74911 8.85782 8.49367 8.99836 8.11782L11.5 1.42759L14.0016 8.11782Z" stroke="#FF9100"/>
</svg>
